# https://github.com/mikedh/trimesh
v 0.00000000 0.00000000 0.00000000
v 0.70000000 0.00000000 0.00000000
v 0.70000000 0.00000000 0.22000000
v 0.00000000 0.00000000 0.22000000
v 0.68244954 0.15576465 0.00000000
v 0.68244954 0.15576465 0.22000000
v 0.63067821 0.30371862 0.00000000
v 0.63067821 0.30371862 0.22000000
v 0.54728204 0.43644286 0.00000000
v 0.54728204 0.43644286 0.22000000
v 0.43644286 0.54728204 0.00000000
v 0.43644286 0.54728204 0.22000000
v 0.30371862 0.63067821 0.00000000
v 0.30371862 0.63067821 0.22000000
v 0.15576465 0.68244954 0.00000000
v 0.15576465 0.68244954 0.22000000
v 0.00000000 0.70000000 0.00000000
v 0.00000000 0.70000000 0.22000000
v -0.15576465 0.68244954 0.00000000
v -0.15576465 0.68244954 0.22000000
v -0.30371862 0.63067821 0.00000000
v -0.30371862 0.63067821 0.22000000
v -0.43644286 0.54728204 0.00000000
v -0.43644286 0.54728204 0.22000000
v -0.54728204 0.43644286 0.00000000
v -0.54728204 0.43644286 0.22000000
v -0.63067821 0.30371862 0.00000000
v -0.63067821 0.30371862 0.22000000
v -0.68244954 0.15576465 0.00000000
v -0.68244954 0.15576465 0.22000000
v -0.70000000 0.00000000 0.00000000
v -0.70000000 0.00000000 0.22000000
v -0.68244954 -0.15576465 0.00000000
v -0.68244954 -0.15576465 0.22000000
v -0.63067821 -0.30371862 0.00000000
v -0.63067821 -0.30371862 0.22000000
v -0.54728204 -0.43644286 0.00000000
v -0.54728204 -0.43644286 0.22000000
v -0.43644286 -0.54728204 0.00000000
v -0.43644286 -0.54728204 0.22000000
v -0.30371862 -0.63067821 0.00000000
v -0.30371862 -0.63067821 0.22000000
v -0.15576465 -0.68244954 0.00000000
v -0.15576465 -0.68244954 0.22000000
v -0.00000000 -0.70000000 0.00000000
v -0.00000000 -0.70000000 0.22000000
v 0.15576465 -0.68244954 0.00000000
v 0.15576465 -0.68244954 0.22000000
v 0.30371862 -0.63067821 0.00000000
v 0.30371862 -0.63067821 0.22000000
v 0.43644286 -0.54728204 0.00000000
v 0.43644286 -0.54728204 0.22000000
v 0.54728204 -0.43644286 0.00000000
v 0.54728204 -0.43644286 0.22000000
v 0.63067821 -0.30371862 0.00000000
v 0.63067821 -0.30371862 0.22000000
v 0.68244954 -0.15576465 0.00000000
v 0.68244954 -0.15576465 0.22000000
v 0.00000000 0.00000000 0.22000000
v 0.58000000 0.00000000 0.22000000
v 0.00000000 0.00000000 1.87000000
v 0.55161278 0.17922986 0.22000000
v 0.46922986 0.34091545 0.22000000
v 0.34091545 0.46922986 0.22000000
v 0.17922986 0.55161278 0.22000000
v 0.00000000 0.58000000 0.22000000
v -0.17922986 0.55161278 0.22000000
v -0.34091545 0.46922986 0.22000000
v -0.46922986 0.34091545 0.22000000
v -0.55161278 0.17922986 0.22000000
v -0.58000000 0.00000000 0.22000000
v -0.55161278 -0.17922986 0.22000000
v -0.46922986 -0.34091545 0.22000000
v -0.34091545 -0.46922986 0.22000000
v -0.17922986 -0.55161278 0.22000000
v -0.00000000 -0.58000000 0.22000000
v 0.17922986 -0.55161278 0.22000000
v 0.34091545 -0.46922986 0.22000000
v 0.46922986 -0.34091545 0.22000000
v 0.55161278 -0.17922986 0.22000000
v -0.22080707 0.30623429 2.05000000
v 0.22080707 0.30623429 2.05000000
v -0.22080707 -0.30623429 2.05000000
v 0.22080707 -0.30623429 2.05000000
v 0.00000000 -0.18926320 2.42428636
v 0.00000000 0.18926320 2.42428636
v 0.00000000 -0.18926320 1.67571364
v 0.00000000 0.18926320 1.67571364
v 0.35727334 0.00000000 1.81867831
v 0.35727334 0.00000000 2.28132169
v -0.35727334 0.00000000 1.81867831
v -0.35727334 0.00000000 2.28132169
v 0.00000000 0.36000000 2.05000000
v 0.00000000 -0.36000000 2.05000000
v -0.12978714 -0.29124612 2.27000000
v 0.12978714 -0.29124612 2.27000000
v -0.12978714 0.29124612 2.27000000
v 0.12978714 0.29124612 2.27000000
v 0.00000000 0.00000000 2.49000000
v -0.12978714 -0.29124612 1.83000000
v 0.12978714 -0.29124612 1.83000000
v -0.12978714 0.29124612 1.83000000
v 0.12978714 0.29124612 1.83000000
v 0.00000000 0.00000000 1.61000000
v 0.33978714 0.18000000 1.91403252
v 0.33978714 -0.18000000 1.91403252
v 0.21000000 -0.11124612 1.69403252
v 0.21000000 0.11124612 1.69403252
v 0.33978714 0.18000000 2.18596748
v 0.33978714 -0.18000000 2.18596748
v 0.21000000 -0.11124612 2.40596748
v 0.21000000 0.11124612 2.40596748
v 0.42000000 0.00000000 2.05000000
v -0.33978714 0.18000000 1.91403252
v -0.33978714 -0.18000000 1.91403252
v -0.21000000 -0.11124612 1.69403252
v -0.21000000 0.11124612 1.69403252
v -0.33978714 0.18000000 2.18596748
v -0.33978714 -0.18000000 2.18596748
v -0.21000000 -0.11124612 2.40596748
v -0.21000000 0.11124612 2.40596748
v -0.42000000 0.00000000 2.05000000
v -0.11477194 0.34629781 2.05000000
v 0.11477194 0.34629781 2.05000000
v -0.11477194 -0.34629781 2.05000000
v 0.11477194 -0.34629781 2.05000000
v -0.18223320 -0.31056065 2.16435244
v -0.06746125 -0.24976097 2.35890044
v -0.06823314 -0.34238035 2.16566084
v 0.18223320 -0.31056065 2.16435244
v 0.06746125 -0.24976097 2.35890044
v 0.06823314 -0.34238035 2.16566084
v 0.00000000 -0.30623429 2.28132169
v -0.18223320 0.31056065 2.16435244
v -0.06746125 0.24976097 2.35890044
v -0.06823314 0.34238035 2.16566084
v 0.18223320 0.31056065 2.16435244
v 0.06746125 0.24976097 2.35890044
v 0.06823314 0.34238035 2.16566084
v 0.00000000 0.30623429 2.28132169
v 0.00000000 -0.09837595 2.47325288
v 0.00000000 0.09837595 2.47325288
v -0.18223320 -0.31056065 1.93564756
v -0.06746125 -0.24976097 1.74109956
v -0.06823314 -0.34238035 1.93433916
v 0.18223320 -0.31056065 1.93564756
v 0.06746125 -0.24976097 1.74109956
v 0.06823314 -0.34238035 1.93433916
v 0.00000000 -0.30623429 1.81867831
v -0.18223320 0.31056065 1.93564756
v -0.06746125 0.24976097 1.74109956
v -0.06823314 0.34238035 1.93433916
v 0.18223320 0.31056065 1.93564756
v 0.06746125 0.24976097 1.74109956
v 0.06823314 0.34238035 1.93433916
v 0.00000000 0.30623429 1.81867831
v 0.00000000 -0.09837595 1.62674712
v 0.00000000 0.09837595 1.62674712
v 0.29138780 0.25273672 1.97932630
v 0.36232076 0.09356109 1.85908903
v 0.24686981 0.24774875 1.86285682
v 0.29138780 -0.25273672 1.97932630
v 0.36232076 -0.09356109 1.85908903
v 0.24686981 -0.24774875 1.86285682
v 0.10915460 -0.15619988 1.67042587
v 0.29485951 -0.05782393 1.74473659
v 0.17863667 -0.21160269 1.74719598
v 0.11040353 -0.05848555 1.63153513
v 0.28904020 -0.15311715 1.79137449
v 0.10915460 0.15619988 1.67042587
v 0.29485951 0.05782393 1.74473659
v 0.17863667 0.21160269 1.74719598
v 0.11040353 0.05848555 1.63153513
v 0.28904020 0.15311715 1.79137449
v 0.22080707 0.00000000 1.67571364
v 0.29138780 0.25273672 2.12067370
v 0.36232076 0.09356109 2.24091097
v 0.24686981 0.24774875 2.23714318
v 0.35727334 0.18926320 2.05000000
v 0.29138780 -0.25273672 2.12067370
v 0.36232076 -0.09356109 2.24091097
v 0.24686981 -0.24774875 2.23714318
v 0.35727334 -0.18926320 2.05000000
v 0.10915460 -0.15619988 2.42957413
v 0.29485951 -0.05782393 2.35526341
v 0.17863667 -0.21160269 2.35280402
v 0.11040353 -0.05848555 2.46846487
v 0.28904020 -0.15311715 2.30862551
v 0.10915460 0.15619988 2.42957413
v 0.29485951 0.05782393 2.35526341
v 0.17863667 0.21160269 2.35280402
v 0.11040353 0.05848555 2.46846487
v 0.28904020 0.15311715 2.30862551
v 0.22080707 0.00000000 2.42428636
v 0.40401411 0.00000000 1.92976273
v 0.40401411 0.00000000 2.17023727
v 0.39944374 0.09463160 1.97851767
v 0.39944374 -0.09463160 1.97851767
v 0.39944374 0.09463160 2.12148233
v 0.39944374 -0.09463160 2.12148233
v -0.29138780 0.25273672 1.97932630
v -0.36232076 0.09356109 1.85908903
v -0.24686981 0.24774875 1.86285682
v -0.29138780 -0.25273672 1.97932630
v -0.36232076 -0.09356109 1.85908903
v -0.24686981 -0.24774875 1.86285682
v -0.10915460 -0.15619988 1.67042587
v -0.29485951 -0.05782393 1.74473659
v -0.17863667 -0.21160269 1.74719598
v -0.11040353 -0.05848555 1.63153513
v -0.28904020 -0.15311715 1.79137449
v -0.10915460 0.15619988 1.67042587
v -0.29485951 0.05782393 1.74473659
v -0.17863667 0.21160269 1.74719598
v -0.11040353 0.05848555 1.63153513
v -0.28904020 0.15311715 1.79137449
v -0.22080707 0.00000000 1.67571364
v -0.29138780 0.25273672 2.12067370
v -0.36232076 0.09356109 2.24091097
v -0.24686981 0.24774875 2.23714318
v -0.35727334 0.18926320 2.05000000
v -0.29138780 -0.25273672 2.12067370
v -0.36232076 -0.09356109 2.24091097
v -0.24686981 -0.24774875 2.23714318
v -0.35727334 -0.18926320 2.05000000
v -0.10915460 -0.15619988 2.42957413
v -0.29485951 -0.05782393 2.35526341
v -0.17863667 -0.21160269 2.35280402
v -0.11040353 -0.05848555 2.46846487
v -0.28904020 -0.15311715 2.30862551
v -0.10915460 0.15619988 2.42957413
v -0.29485951 0.05782393 2.35526341
v -0.17863667 0.21160269 2.35280402
v -0.11040353 0.05848555 2.46846487
v -0.28904020 0.15311715 2.30862551
v -0.22080707 0.00000000 2.42428636
v -0.40401411 0.00000000 1.92976273
v -0.40401411 0.00000000 2.17023727
v -0.39944374 0.09463160 1.97851767
v -0.39944374 -0.09463160 1.97851767
v -0.39944374 0.09463160 2.12148233
v -0.39944374 -0.09463160 2.12148233
v -0.18000000 0.26000000 1.40000000
v -0.18000000 0.26000000 1.80000000
v -0.18000000 0.38000000 1.40000000
v -0.18000000 0.38000000 1.80000000
v 0.18000000 0.26000000 1.40000000
v 0.18000000 0.26000000 1.80000000
v 0.18000000 0.38000000 1.40000000
v 0.18000000 0.38000000 1.80000000
f 2 1 5
f 2 5 3
f 3 5 6
f 3 6 4
f 5 1 7
f 5 7 6
f 6 7 8
f 6 8 4
f 7 1 9
f 7 9 8
f 8 9 10
f 8 10 4
f 9 1 11
f 9 11 10
f 10 11 12
f 10 12 4
f 11 1 13
f 11 13 12
f 12 13 14
f 12 14 4
f 13 1 15
f 13 15 14
f 14 15 16
f 14 16 4
f 15 1 17
f 15 17 16
f 16 17 18
f 16 18 4
f 17 1 19
f 17 19 18
f 18 19 20
f 18 20 4
f 19 1 21
f 19 21 20
f 20 21 22
f 20 22 4
f 21 1 23
f 21 23 22
f 22 23 24
f 22 24 4
f 23 1 25
f 23 25 24
f 24 25 26
f 24 26 4
f 25 1 27
f 25 27 26
f 26 27 28
f 26 28 4
f 27 1 29
f 27 29 28
f 28 29 30
f 28 30 4
f 29 1 31
f 29 31 30
f 30 31 32
f 30 32 4
f 31 1 33
f 31 33 32
f 32 33 34
f 32 34 4
f 33 1 35
f 33 35 34
f 34 35 36
f 34 36 4
f 35 1 37
f 35 37 36
f 36 37 38
f 36 38 4
f 37 1 39
f 37 39 38
f 38 39 40
f 38 40 4
f 39 1 41
f 39 41 40
f 40 41 42
f 40 42 4
f 41 1 43
f 41 43 42
f 42 43 44
f 42 44 4
f 43 1 45
f 43 45 44
f 44 45 46
f 44 46 4
f 45 1 47
f 45 47 46
f 46 47 48
f 46 48 4
f 47 1 49
f 47 49 48
f 48 49 50
f 48 50 4
f 49 1 51
f 49 51 50
f 50 51 52
f 50 52 4
f 51 1 53
f 51 53 52
f 52 53 54
f 52 54 4
f 53 1 55
f 53 55 54
f 54 55 56
f 54 56 4
f 55 1 57
f 55 57 56
f 56 57 58
f 56 58 4
f 57 1 2
f 57 2 58
f 58 2 3
f 58 3 4
f 60 59 62
f 60 62 61
f 62 59 63
f 62 63 61
f 63 59 64
f 63 64 61
f 64 59 65
f 64 65 61
f 65 59 66
f 65 66 61
f 66 59 67
f 66 67 61
f 67 59 68
f 67 68 61
f 68 59 69
f 68 69 61
f 69 59 70
f 69 70 61
f 70 59 71
f 70 71 61
f 71 59 72
f 71 72 61
f 72 59 73
f 72 73 61
f 73 59 74
f 73 74 61
f 74 59 75
f 74 75 61
f 75 59 76
f 75 76 61
f 76 59 77
f 76 77 61
f 77 59 78
f 77 78 61
f 78 59 79
f 78 79 61
f 79 59 80
f 79 80 61
f 80 59 60
f 80 60 61
f 81 218 134
f 218 118 220
f 134 220 97
f 218 220 134
f 118 219 235
f 219 92 232
f 235 232 121
f 219 232 235
f 97 233 135
f 233 121 231
f 135 231 86
f 233 231 135
f 118 235 220
f 235 121 233
f 220 233 97
f 235 233 220
f 81 134 123
f 134 97 136
f 123 136 93
f 134 136 123
f 97 135 140
f 135 86 138
f 140 138 98
f 135 138 140
f 93 139 124
f 139 98 137
f 124 137 82
f 139 137 124
f 97 140 136
f 140 98 139
f 136 139 93
f 140 139 136
f 81 123 150
f 123 93 152
f 150 152 102
f 123 152 150
f 93 124 155
f 124 82 153
f 155 153 103
f 124 153 155
f 102 156 151
f 156 103 154
f 151 154 88
f 156 154 151
f 93 155 152
f 155 103 156
f 152 156 102
f 155 156 152
f 81 150 201
f 150 102 203
f 201 203 114
f 150 203 201
f 102 151 214
f 151 88 212
f 214 212 117
f 151 212 214
f 114 216 202
f 216 117 213
f 202 213 91
f 216 213 202
f 102 214 203
f 214 117 216
f 203 216 114
f 214 216 203
f 81 201 218
f 201 114 221
f 218 221 118
f 201 221 218
f 114 202 239
f 202 91 237
f 239 237 122
f 202 237 239
f 118 241 219
f 241 122 238
f 219 238 92
f 241 238 219
f 114 239 221
f 239 122 241
f 221 241 118
f 239 241 221
f 82 137 176
f 137 98 178
f 176 178 109
f 137 178 176
f 98 138 191
f 138 86 189
f 191 189 112
f 138 189 191
f 109 193 177
f 193 112 190
f 177 190 90
f 193 190 177
f 98 191 178
f 191 112 193
f 178 193 109
f 191 193 178
f 86 231 142
f 231 121 234
f 142 234 99
f 231 234 142
f 121 232 236
f 232 92 227
f 236 227 120
f 232 227 236
f 99 229 141
f 229 120 226
f 141 226 85
f 229 226 141
f 121 236 234
f 236 120 229
f 234 229 99
f 236 229 234
f 92 238 223
f 238 122 242
f 223 242 119
f 238 242 223
f 122 237 240
f 237 91 205
f 240 205 115
f 237 205 240
f 119 225 222
f 225 115 204
f 222 204 83
f 225 204 222
f 122 240 242
f 240 115 225
f 242 225 119
f 240 225 242
f 91 213 208
f 213 117 217
f 208 217 116
f 213 217 208
f 117 212 215
f 212 88 158
f 215 158 104
f 212 158 215
f 116 210 207
f 210 104 157
f 207 157 87
f 210 157 207
f 117 215 217
f 215 104 210
f 217 210 116
f 215 210 217
f 88 154 170
f 154 103 172
f 170 172 108
f 154 172 170
f 103 153 161
f 153 82 159
f 161 159 105
f 153 159 161
f 108 174 171
f 174 105 160
f 171 160 89
f 174 160 171
f 103 161 172
f 161 105 174
f 172 174 108
f 161 174 172
f 84 180 130
f 180 110 182
f 130 182 96
f 180 182 130
f 110 181 188
f 181 90 185
f 188 185 111
f 181 185 188
f 96 186 131
f 186 111 184
f 131 184 85
f 186 184 131
f 110 188 182
f 188 111 186
f 182 186 96
f 188 186 182
f 84 130 126
f 130 96 132
f 126 132 94
f 130 132 126
f 96 131 133
f 131 85 128
f 133 128 95
f 131 128 133
f 94 129 125
f 129 95 127
f 125 127 83
f 129 127 125
f 96 133 132
f 133 95 129
f 132 129 94
f 133 129 132
f 84 126 146
f 126 94 148
f 146 148 101
f 126 148 146
f 94 125 145
f 125 83 143
f 145 143 100
f 125 143 145
f 101 149 147
f 149 100 144
f 147 144 87
f 149 144 147
f 94 145 148
f 145 100 149
f 148 149 101
f 145 149 148
f 84 146 162
f 146 101 164
f 162 164 106
f 146 164 162
f 101 147 167
f 147 87 165
f 167 165 107
f 147 165 167
f 106 169 163
f 169 107 166
f 163 166 89
f 169 166 163
f 101 167 164
f 167 107 169
f 164 169 106
f 167 169 164
f 84 162 180
f 162 106 183
f 180 183 110
f 162 183 180
f 106 163 198
f 163 89 195
f 198 195 113
f 163 195 198
f 110 200 181
f 200 113 196
f 181 196 90
f 200 196 181
f 106 198 183
f 198 113 200
f 183 200 110
f 198 200 183
f 85 184 141
f 184 111 187
f 141 187 99
f 184 187 141
f 111 185 194
f 185 90 190
f 194 190 112
f 185 190 194
f 99 192 142
f 192 112 189
f 142 189 86
f 192 189 142
f 111 194 187
f 194 112 192
f 187 192 99
f 194 192 187
f 83 127 222
f 127 95 224
f 222 224 119
f 127 224 222
f 95 128 228
f 128 85 226
f 228 226 120
f 128 226 228
f 119 230 223
f 230 120 227
f 223 227 92
f 230 227 223
f 95 228 224
f 228 120 230
f 224 230 119
f 228 230 224
f 87 144 207
f 144 100 209
f 207 209 116
f 144 209 207
f 100 143 206
f 143 83 204
f 206 204 115
f 143 204 206
f 116 211 208
f 211 115 205
f 208 205 91
f 211 205 208
f 100 206 209
f 206 115 211
f 209 211 116
f 206 211 209
f 89 166 171
f 166 107 175
f 171 175 108
f 166 175 171
f 107 165 168
f 165 87 157
f 168 157 104
f 165 157 168
f 108 173 170
f 173 104 158
f 170 158 88
f 173 158 170
f 107 168 175
f 168 104 173
f 175 173 108
f 168 173 175
f 90 196 177
f 196 113 199
f 177 199 109
f 196 199 177
f 113 195 197
f 195 89 160
f 197 160 105
f 195 160 197
f 109 179 176
f 179 105 159
f 176 159 82
f 179 159 176
f 113 197 199
f 197 105 179
f 199 179 109
f 197 179 199
f 244 246 243
f 247 244 243
f 243 246 245
f 245 247 243
f 244 250 246
f 248 244 247
f 248 250 244
f 246 250 245
f 249 247 245
f 245 250 249
f 249 248 247
f 250 248 249

