# https://github.com/mikedh/trimesh
v 0.00000000 0.00000000 0.00000000
v 0.95000000 0.00000000 0.00000000
v 0.95000000 0.00000000 0.30000000
v 0.00000000 0.00000000 0.30000000
v 0.93174602 0.18533581 0.00000000
v 0.93174602 0.18533581 0.30000000
v 0.87768556 0.36354926 0.00000000
v 0.87768556 0.36354926 0.30000000
v 0.78989613 0.52779172 0.00000000
v 0.78989613 0.52779172 0.30000000
v 0.67175144 0.67175144 0.00000000
v 0.67175144 0.67175144 0.30000000
v 0.52779172 0.78989613 0.00000000
v 0.52779172 0.78989613 0.30000000
v 0.36354926 0.87768556 0.00000000
v 0.36354926 0.87768556 0.30000000
v 0.18533581 0.93174602 0.00000000
v 0.18533581 0.93174602 0.30000000
v 0.00000000 0.95000000 0.00000000
v 0.00000000 0.95000000 0.30000000
v -0.18533581 0.93174602 0.00000000
v -0.18533581 0.93174602 0.30000000
v -0.36354926 0.87768556 0.00000000
v -0.36354926 0.87768556 0.30000000
v -0.52779172 0.78989613 0.00000000
v -0.52779172 0.78989613 0.30000000
v -0.67175144 0.67175144 0.00000000
v -0.67175144 0.67175144 0.30000000
v -0.78989613 0.52779172 0.00000000
v -0.78989613 0.52779172 0.30000000
v -0.87768556 0.36354926 0.00000000
v -0.87768556 0.36354926 0.30000000
v -0.93174602 0.18533581 0.00000000
v -0.93174602 0.18533581 0.30000000
v -0.95000000 0.00000000 0.00000000
v -0.95000000 0.00000000 0.30000000
v -0.93174602 -0.18533581 0.00000000
v -0.93174602 -0.18533581 0.30000000
v -0.87768556 -0.36354926 0.00000000
v -0.87768556 -0.36354926 0.30000000
v -0.78989613 -0.52779172 0.00000000
v -0.78989613 -0.52779172 0.30000000
v -0.67175144 -0.67175144 0.00000000
v -0.67175144 -0.67175144 0.30000000
v -0.52779172 -0.78989613 0.00000000
v -0.52779172 -0.78989613 0.30000000
v -0.36354926 -0.87768556 0.00000000
v -0.36354926 -0.87768556 0.30000000
v -0.18533581 -0.93174602 0.00000000
v -0.18533581 -0.93174602 0.30000000
v -0.00000000 -0.95000000 0.00000000
v -0.00000000 -0.95000000 0.30000000
v 0.18533581 -0.93174602 0.00000000
v 0.18533581 -0.93174602 0.30000000
v 0.36354926 -0.87768556 0.00000000
v 0.36354926 -0.87768556 0.30000000
v 0.52779172 -0.78989613 0.00000000
v 0.52779172 -0.78989613 0.30000000
v 0.67175144 -0.67175144 0.00000000
v 0.67175144 -0.67175144 0.30000000
v 0.78989613 -0.52779172 0.00000000
v 0.78989613 -0.52779172 0.30000000
v 0.87768556 -0.36354926 0.00000000
v 0.87768556 -0.36354926 0.30000000
v 0.93174602 -0.18533581 0.00000000
v 0.93174602 -0.18533581 0.30000000
v 0.00000000 0.00000000 0.30000000
v 0.95000000 0.00000000 0.30000000
v 0.00000000 0.00000000 2.80000000
v 0.92618152 0.21139489 0.30000000
v 0.85592042 0.41218955 0.30000000
v 0.74273991 0.59231531 0.30000000
v 0.59231531 0.74273991 0.30000000
v 0.41218955 0.85592042 0.30000000
v 0.21139489 0.92618152 0.30000000
v 0.00000000 0.95000000 0.30000000
v -0.21139489 0.92618152 0.30000000
v -0.41218955 0.85592042 0.30000000
v -0.59231531 0.74273991 0.30000000
v -0.74273991 0.59231531 0.30000000
v -0.85592042 0.41218955 0.30000000
v -0.92618152 0.21139489 0.30000000
v -0.95000000 0.00000000 0.30000000
v -0.92618152 -0.21139489 0.30000000
v -0.85592042 -0.41218955 0.30000000
v -0.74273991 -0.59231531 0.30000000
v -0.59231531 -0.74273991 0.30000000
v -0.41218955 -0.85592042 0.30000000
v -0.21139489 -0.92618152 0.30000000
v -0.00000000 -0.95000000 0.30000000
v 0.21139489 -0.92618152 0.30000000
v 0.41218955 -0.85592042 0.30000000
v 0.59231531 -0.74273991 0.30000000
v 0.74273991 -0.59231531 0.30000000
v 0.85592042 -0.41218955 0.30000000
v 0.92618152 -0.21139489 0.30000000
v -0.35749716 0.49337747 3.15000000
v 0.35749716 0.49337747 3.15000000
v -0.35749716 -0.49337747 3.15000000
v 0.35749716 -0.49337747 3.15000000
v 0.00000000 -0.30492405 3.81350763
v 0.00000000 0.30492405 3.81350763
v 0.00000000 -0.30492405 2.48649237
v 0.00000000 0.30492405 2.48649237
v 0.57844255 0.00000000 2.73992973
v 0.57844255 0.00000000 3.56007027
v -0.57844255 0.00000000 2.73992973
v -0.57844255 0.00000000 3.56007027
v 0.00000000 0.58000000 3.15000000
v 0.00000000 -0.58000000 3.15000000
v -0.21013156 -0.46922986 3.54000000
v 0.21013156 -0.46922986 3.54000000
v -0.21013156 0.46922986 3.54000000
v 0.21013156 0.46922986 3.54000000
v 0.00000000 0.00000000 3.93000000
v -0.21013156 -0.46922986 2.76000000
v 0.21013156 -0.46922986 2.76000000
v -0.21013156 0.46922986 2.76000000
v 0.21013156 0.46922986 2.76000000
v 0.00000000 0.00000000 2.37000000
v 0.55013156 0.29000000 2.90896674
v 0.55013156 -0.29000000 2.90896674
v 0.34000000 -0.17922986 2.51896674
v 0.34000000 0.17922986 2.51896674
v 0.55013156 0.29000000 3.39103326
v 0.55013156 -0.29000000 3.39103326
v 0.34000000 -0.17922986 3.78103326
v 0.34000000 0.17922986 3.78103326
v 0.68000000 0.00000000 3.15000000
v -0.55013156 0.29000000 2.90896674
v -0.55013156 -0.29000000 2.90896674
v -0.34000000 -0.17922986 2.51896674
v -0.34000000 0.17922986 2.51896674
v -0.55013156 0.29000000 3.39103326
v -0.55013156 -0.29000000 3.39103326
v -0.34000000 -0.17922986 3.78103326
v -0.34000000 0.17922986 3.78103326
v -0.68000000 0.00000000 3.15000000
v -0.18582124 0.55792425 3.15000000
v 0.18582124 0.55792425 3.15000000
v -0.18582124 -0.55792425 3.15000000
v 0.18582124 -0.55792425 3.15000000
v -0.29504422 -0.50034772 3.35271569
v -0.10922298 -0.40239268 3.69759623
v -0.11047270 -0.55161278 3.35503513
v 0.29504422 -0.50034772 3.35271569
v 0.10922298 -0.40239268 3.69759623
v 0.11047270 -0.55161278 3.35503513
v 0.00000000 -0.49337747 3.56007027
v -0.29504422 0.50034772 3.35271569
v -0.10922298 0.40239268 3.69759623
v -0.11047270 0.55161278 3.35503513
v 0.29504422 0.50034772 3.35271569
v 0.10922298 0.40239268 3.69759623
v 0.11047270 0.55161278 3.35503513
v 0.00000000 0.49337747 3.56007027
v 0.00000000 -0.15849459 3.90031192
v 0.00000000 0.15849459 3.90031192
v -0.29504422 -0.50034772 2.94728431
v -0.10922298 -0.40239268 2.60240377
v -0.11047270 -0.55161278 2.94496487
v 0.29504422 -0.50034772 2.94728431
v 0.10922298 -0.40239268 2.60240377
v 0.11047270 -0.55161278 2.94496487
v 0.00000000 -0.49337747 2.73992973
v -0.29504422 0.50034772 2.94728431
v -0.10922298 0.40239268 2.60240377
v -0.11047270 0.55161278 2.94496487
v 0.29504422 0.50034772 2.94728431
v 0.10922298 0.40239268 2.60240377
v 0.11047270 0.55161278 2.94496487
v 0.00000000 0.49337747 2.73992973
v 0.00000000 -0.15849459 2.39968808
v 0.00000000 0.15849459 2.39968808
v 0.47177072 0.40718694 3.02471481
v 0.58661457 0.15073731 2.81156692
v 0.39969397 0.39915076 2.81824618
v 0.47177072 -0.40718694 3.02471481
v 0.58661457 -0.15073731 2.81156692
v 0.39969397 -0.39915076 2.81824618
v 0.17672650 -0.25165537 2.47711859
v 0.47739158 -0.09316078 2.60885123
v 0.28922127 -0.34091545 2.61321105
v 0.17874858 -0.09422671 2.40817592
v 0.46796985 -0.24668873 2.69152750
v 0.17672650 0.25165537 2.47711859
v 0.47739158 0.09316078 2.60885123
v 0.28922127 0.34091545 2.61321105
v 0.17874858 0.09422671 2.40817592
v 0.46796985 0.24668873 2.69152750
v 0.35749716 0.00000000 2.48649237
v 0.47177072 0.40718694 3.27528519
v 0.58661457 0.15073731 3.48843308
v 0.39969397 0.39915076 3.48175382
v 0.57844255 0.30492405 3.15000000
v 0.47177072 -0.40718694 3.27528519
v 0.58661457 -0.15073731 3.48843308
v 0.39969397 -0.39915076 3.48175382
v 0.57844255 -0.30492405 3.15000000
v 0.17672650 -0.25165537 3.82288141
v 0.47739158 -0.09316078 3.69114877
v 0.28922127 -0.34091545 3.68678895
v 0.17874858 -0.09422671 3.89182408
v 0.46796985 -0.24668873 3.60847250
v 0.17672650 0.25165537 3.82288141
v 0.47739158 0.09316078 3.69114877
v 0.28922127 0.34091545 3.68678895
v 0.17874858 0.09422671 3.89182408
v 0.46796985 0.24668873 3.60847250
v 0.35749716 0.00000000 3.81350763
v 0.65411808 0.00000000 2.93685211
v 0.65411808 0.00000000 3.36314789
v 0.64671843 0.15246202 3.02328132
v 0.64671843 -0.15246202 3.02328132
v 0.64671843 0.15246202 3.27671868
v 0.64671843 -0.15246202 3.27671868
v -0.47177072 0.40718694 3.02471481
v -0.58661457 0.15073731 2.81156692
v -0.39969397 0.39915076 2.81824618
v -0.47177072 -0.40718694 3.02471481
v -0.58661457 -0.15073731 2.81156692
v -0.39969397 -0.39915076 2.81824618
v -0.17672650 -0.25165537 2.47711859
v -0.47739158 -0.09316078 2.60885123
v -0.28922127 -0.34091545 2.61321105
v -0.17874858 -0.09422671 2.40817592
v -0.46796985 -0.24668873 2.69152750
v -0.17672650 0.25165537 2.47711859
v -0.47739158 0.09316078 2.60885123
v -0.28922127 0.34091545 2.61321105
v -0.17874858 0.09422671 2.40817592
v -0.46796985 0.24668873 2.69152750
v -0.35749716 0.00000000 2.48649237
v -0.47177072 0.40718694 3.27528519
v -0.58661457 0.15073731 3.48843308
v -0.39969397 0.39915076 3.48175382
v -0.57844255 0.30492405 3.15000000
v -0.47177072 -0.40718694 3.27528519
v -0.58661457 -0.15073731 3.48843308
v -0.39969397 -0.39915076 3.48175382
v -0.57844255 -0.30492405 3.15000000
v -0.17672650 -0.25165537 3.82288141
v -0.47739158 -0.09316078 3.69114877
v -0.28922127 -0.34091545 3.68678895
v -0.17874858 -0.09422671 3.89182408
v -0.46796985 -0.24668873 3.60847250
v -0.17672650 0.25165537 3.82288141
v -0.47739158 0.09316078 3.69114877
v -0.28922127 0.34091545 3.68678895
v -0.17874858 0.09422671 3.89182408
v -0.46796985 0.24668873 3.60847250
v -0.35749716 0.00000000 3.81350763
v -0.65411808 0.00000000 2.93685211
v -0.65411808 0.00000000 3.36314789
v -0.64671843 0.15246202 3.02328132
v -0.64671843 -0.15246202 3.02328132
v -0.64671843 0.15246202 3.27671868
v -0.64671843 -0.15246202 3.27671868
v -0.27428164 0.53072518 3.15000000
v -0.09380752 0.57445455 3.15000000
v 0.27428164 0.53072518 3.15000000
v 0.09380752 0.57445455 3.15000000
v -0.27428164 -0.53072518 3.15000000
v -0.09380752 -0.57445455 3.15000000
v 0.27428164 -0.53072518 3.15000000
v 0.09380752 -0.57445455 3.15000000
v -0.32942032 -0.50165901 3.25233630
v -0.25502623 -0.48946866 3.44921871
v -0.24359558 -0.53609667 3.25269119
v -0.05513868 -0.35707237 3.76139757
v -0.16121870 -0.44001833 3.62332362
v -0.05592488 -0.57285924 3.25379546
v -0.16230031 -0.51678378 3.45122616
v -0.14967958 -0.56050771 3.25357813
v -0.20485604 -0.53142162 3.35598455
v 0.32942032 -0.50165901 3.25233630
v 0.25502623 -0.48946866 3.44921871
v 0.24359558 -0.53609667 3.25269119
v 0.05513868 -0.35707237 3.76139757
v 0.16121870 -0.44001833 3.62332362
v 0.00000000 -0.40768608 3.70479975
v 0.05592488 -0.57285924 3.25379546
v 0.16230031 -0.51678378 3.45122616
v 0.14967958 -0.56050771 3.25357813
v 0.00000000 -0.55903953 3.35779567
v 0.20485604 -0.53142162 3.35598455
v -0.10637544 -0.48730317 3.55502162
v 0.10637544 -0.48730317 3.55502162
v -0.05517646 -0.45251854 3.63378687
v -0.05598003 -0.52952985 3.46169350
v 0.05517646 -0.45251854 3.63378687
v 0.05598003 -0.52952985 3.46169350
v -0.32942032 0.50165901 3.25233630
v -0.25502623 0.48946866 3.44921871
v -0.24359558 0.53609667 3.25269119
v -0.05513868 0.35707237 3.76139757
v -0.16121870 0.44001833 3.62332362
v -0.05592488 0.57285924 3.25379546
v -0.16230031 0.51678378 3.45122616
v -0.14967958 0.56050771 3.25357813
v -0.20485604 0.53142162 3.35598455
v 0.32942032 0.50165901 3.25233630
v 0.25502623 0.48946866 3.44921871
v 0.24359558 0.53609667 3.25269119
v 0.05513868 0.35707237 3.76139757
v 0.16121870 0.44001833 3.62332362
v 0.00000000 0.40768608 3.70479975
v 0.05592488 0.57285924 3.25379546
v 0.16230031 0.51678378 3.45122616
v 0.14967958 0.56050771 3.25357813
v 0.00000000 0.55903953 3.35779567
v 0.20485604 0.53142162 3.35598455
v -0.10637544 0.48730317 3.55502162
v 0.10637544 0.48730317 3.55502162
v -0.05517646 0.45251854 3.63378687
v -0.05598003 0.52952985 3.46169350
v 0.05517646 0.45251854 3.63378687
v 0.05598003 0.52952985 3.46169350
v 0.00000000 -0.23394610 3.86373387
v 0.00000000 -0.08001230 3.92254233
v 0.00000000 0.23394610 3.86373387
v 0.00000000 0.08001230 3.92254233
v -0.32942032 -0.50165901 3.04766370
v -0.25502623 -0.48946866 2.85078129
v -0.24359558 -0.53609667 3.04730881
v -0.05513868 -0.35707237 2.53860243
v -0.16121870 -0.44001833 2.67667638
v -0.05592488 -0.57285924 3.04620454
v -0.16230031 -0.51678378 2.84877384
v -0.14967958 -0.56050771 3.04642187
v -0.20485604 -0.53142162 2.94401545
v 0.32942032 -0.50165901 3.04766370
v 0.25502623 -0.48946866 2.85078129
v 0.24359558 -0.53609667 3.04730881
v 0.05513868 -0.35707237 2.53860243
v 0.16121870 -0.44001833 2.67667638
v 0.00000000 -0.40768608 2.59520025
v 0.05592488 -0.57285924 3.04620454
v 0.16230031 -0.51678378 2.84877384
v 0.14967958 -0.56050771 3.04642187
v 0.00000000 -0.55903953 2.94220433
v 0.20485604 -0.53142162 2.94401545
v -0.10637544 -0.48730317 2.74497838
v 0.10637544 -0.48730317 2.74497838
v -0.05517646 -0.45251854 2.66621313
v -0.05598003 -0.52952985 2.83830650
v 0.05517646 -0.45251854 2.66621313
v 0.05598003 -0.52952985 2.83830650
v -0.32942032 0.50165901 3.04766370
v -0.25502623 0.48946866 2.85078129
v -0.24359558 0.53609667 3.04730881
v -0.05513868 0.35707237 2.53860243
v -0.16121870 0.44001833 2.67667638
v -0.05592488 0.57285924 3.04620454
v -0.16230031 0.51678378 2.84877384
v -0.14967958 0.56050771 3.04642187
v -0.20485604 0.53142162 2.94401545
v 0.32942032 0.50165901 3.04766370
v 0.25502623 0.48946866 2.85078129
v 0.24359558 0.53609667 3.04730881
v 0.05513868 0.35707237 2.53860243
v 0.16121870 0.44001833 2.67667638
v 0.00000000 0.40768608 2.59520025
v 0.05592488 0.57285924 3.04620454
v 0.16230031 0.51678378 2.84877384
v 0.14967958 0.56050771 3.04642187
v 0.00000000 0.55903953 2.94220433
v 0.20485604 0.53142162 2.94401545
v -0.10637544 0.48730317 2.74497838
v 0.10637544 0.48730317 2.74497838
v -0.05517646 0.45251854 2.66621313
v -0.05598003 0.52952985 2.83830650
v 0.05517646 0.45251854 2.66621313
v 0.05598003 0.52952985 2.83830650
v 0.00000000 -0.23394610 2.43626613
v 0.00000000 -0.08001230 2.37745767
v 0.00000000 0.23394610 2.43626613
v 0.00000000 0.08001230 2.37745767
v 0.41863657 0.45462896 3.08675269
v 0.51588356 0.35195859 2.96507267
v 0.38845113 0.45973655 2.98384216
v 0.58815195 0.07609622 2.77213552
v 0.57385980 0.22249596 2.85746992
v 0.30871354 0.43960254 2.78462472
v 0.48083261 0.34887055 2.86003653
v 0.35096270 0.45440199 2.88000065
v 0.44024009 0.40733971 2.91911642
v 0.41863657 -0.45462896 3.08675269
v 0.51588356 -0.35195859 2.96507267
v 0.38845113 -0.45973655 2.98384216
v 0.58815195 -0.07609622 2.77213552
v 0.57385980 -0.22249596 2.85746992
v 0.30871354 -0.43960254 2.78462472
v 0.48083261 -0.34887055 2.86003653
v 0.35096270 -0.45440199 2.88000065
v 0.44024009 -0.40733971 2.91911642
v 0.08921626 -0.28097615 2.47535512
v 0.26085734 -0.21752237 2.49174905
v 0.14485555 -0.33132596 2.53173360
v 0.08952565 -0.20777270 2.42904241
v 0.53301327 -0.04703005 2.66979922
v 0.41264110 -0.13751007 2.55825121
v 0.53900148 -0.12355326 2.70442371
v 0.25278866 -0.41012193 2.68082926
v 0.31853230 -0.26331449 2.55881037
v 0.20128312 -0.37549890 2.60219832
v 0.34909530 -0.37501512 2.70988171
v 0.23538405 -0.29935054 2.53890768
v 0.09048835 -0.04770063 2.37960309
v 0.26260742 -0.13843262 2.45501491
v 0.09029888 -0.12766788 2.39621377
v 0.17957627 -0.17473015 2.43532954
v 0.51539609 -0.27168931 2.79588741
v 0.40902065 -0.21561386 2.59845671
v 0.53274715 -0.20076875 2.74742514
v 0.43967290 -0.32726744 2.74956716
v 0.47757070 -0.17168266 2.64501872
v 0.38369286 -0.29775776 2.64566932
v 0.08921626 0.28097615 2.47535512
v 0.26085734 0.21752237 2.49174905
v 0.14485555 0.33132596 2.53173360
v 0.08952565 0.20777270 2.42904241
v 0.53301327 0.04703005 2.66979922
v 0.41264110 0.13751007 2.55825121
v 0.53900148 0.12355326 2.70442371
v 0.48367158 0.00000000 2.60173252
v 0.25278866 0.41012193 2.68082926
v 0.31853230 0.26331449 2.55881037
v 0.20128312 0.37549890 2.60219832
v 0.34909530 0.37501512 2.70988171
v 0.23538405 0.29935054 2.53890768
v 0.09048835 0.04770063 2.37960309
v 0.26260742 0.13843262 2.45501491
v 0.09029888 0.12766788 2.39621377
v 0.18115520 0.00000000 2.39818821
v 0.17957627 0.17473015 2.43532954
v 0.51539609 0.27168931 2.79588741
v 0.40902065 0.21561386 2.59845671
v 0.53274715 0.20076875 2.74742514
v 0.43967290 0.32726744 2.74956716
v 0.47757070 0.17168266 2.64501872
v 0.38369286 0.29775776 2.64566932
v 0.35309577 -0.09073199 2.49466125
v 0.35309577 0.09073199 2.49466125
v 0.42176292 -0.04706227 2.54144059
v 0.27173280 -0.04774768 2.43787366
v 0.42176292 0.04706227 2.54144059
v 0.27173280 0.04774768 2.43787366
v 0.41863657 0.45462896 3.21324731
v 0.51588356 0.35195859 3.33492733
v 0.38845113 0.45973655 3.31615784
v 0.47797678 0.41254341 3.15000000
v 0.58815195 0.07609622 3.52786448
v 0.57385980 0.22249596 3.44253008
v 0.30871354 0.43960254 3.51537528
v 0.48083261 0.34887055 3.43996347
v 0.35096270 0.45440199 3.41999935
v 0.44024009 0.40733971 3.38088358
v 0.57132096 0.30116992 3.02798112
v 0.57132096 0.30116992 3.27201888
v 0.53053897 0.35973896 3.08670936
v 0.53053897 0.35973896 3.21329064
v 0.41863657 -0.45462896 3.21324731
v 0.51588356 -0.35195859 3.33492733
v 0.38845113 -0.45973655 3.31615784
v 0.47797678 -0.41254341 3.15000000
v 0.58815195 -0.07609622 3.52786448
v 0.57385980 -0.22249596 3.44253008
v 0.30871354 -0.43960254 3.51537528
v 0.48083261 -0.34887055 3.43996347
v 0.35096270 -0.45440199 3.41999935
v 0.44024009 -0.40733971 3.38088358
v 0.57132096 -0.30116992 3.02798112
v 0.57132096 -0.30116992 3.27201888
v 0.53053897 -0.35973896 3.08670936
v 0.53053897 -0.35973896 3.21329064
v 0.08921626 -0.28097615 3.82464488
v 0.26085734 -0.21752237 3.80825095
v 0.14485555 -0.33132596 3.76826640
v 0.08952565 -0.20777270 3.87095759
v 0.53301327 -0.04703005 3.63020078
v 0.41264110 -0.13751007 3.74174879
v 0.53900148 -0.12355326 3.59557629
v 0.25278866 -0.41012193 3.61917074
v 0.31853230 -0.26331449 3.74118963
v 0.20128312 -0.37549890 3.69780168
v 0.34909530 -0.37501512 3.59011829
v 0.23538405 -0.29935054 3.76109232
v 0.09048835 -0.04770063 3.92039691
v 0.26260742 -0.13843262 3.84498509
v 0.09029888 -0.12766788 3.90378623
v 0.17957627 -0.17473015 3.86467046
v 0.51539609 -0.27168931 3.50411259
v 0.40902065 -0.21561386 3.70154329
v 0.53274715 -0.20076875 3.55257486
v 0.43967290 -0.32726744 3.55043284
v 0.47757070 -0.17168266 3.65498128
v 0.38369286 -0.29775776 3.65433068
v 0.08921626 0.28097615 3.82464488
v 0.26085734 0.21752237 3.80825095
v 0.14485555 0.33132596 3.76826640
v 0.08952565 0.20777270 3.87095759
v 0.53301327 0.04703005 3.63020078
v 0.41264110 0.13751007 3.74174879
v 0.53900148 0.12355326 3.59557629
v 0.48367158 0.00000000 3.69826748
v 0.25278866 0.41012193 3.61917074
v 0.31853230 0.26331449 3.74118963
v 0.20128312 0.37549890 3.69780168
v 0.34909530 0.37501512 3.59011829
v 0.23538405 0.29935054 3.76109232
v 0.09048835 0.04770063 3.92039691
v 0.26260742 0.13843262 3.84498509
v 0.09029888 0.12766788 3.90378623
v 0.18115520 0.00000000 3.90181179
v 0.17957627 0.17473015 3.86467046
v 0.51539609 0.27168931 3.50411259
v 0.40902065 0.21561386 3.70154329
v 0.53274715 0.20076875 3.55257486
v 0.43967290 0.32726744 3.55043284
v 0.47757070 0.17168266 3.65498128
v 0.38369286 0.29775776 3.65433068
v 0.35309577 -0.09073199 3.80533875
v 0.35309577 0.09073199 3.80533875
v 0.42176292 -0.04706227 3.75855941
v 0.27173280 -0.04774768 3.86212634
v 0.42176292 0.04706227 3.75855941
v 0.27173280 0.04774768 3.86212634
v 0.62222953 0.00000000 2.83538283
v 0.67349844 0.00000000 3.04239725
v 0.62852713 0.07636012 2.87058154
v 0.62852713 -0.07636012 2.87058154
v 0.62222953 0.00000000 3.46461717
v 0.67349844 0.00000000 3.25760275
v 0.62852713 0.07636012 3.42941846
v 0.62852713 -0.07636012 3.42941846
v 0.60588444 0.22398868 2.96383199
v 0.67162807 0.07718124 3.08585088
v 0.62304604 0.15316800 2.91501807
v 0.62082810 0.23177209 3.08578761
v 0.65714697 0.07701964 2.97830872
v 0.60588444 -0.22398868 2.96383199
v 0.67162807 -0.07718124 3.08585088
v 0.62304604 -0.15316800 2.91501807
v 0.62082810 -0.23177209 3.08578761
v 0.65714697 -0.07701964 2.97830872
v 0.60588444 0.22398868 3.33616801
v 0.67162807 0.07718124 3.21414912
v 0.62304604 0.15316800 3.38498193
v 0.62082810 0.23177209 3.21421239
v 0.65714697 0.07701964 3.32169128
v 0.65542566 0.15451473 3.15000000
v 0.60588444 -0.22398868 3.33616801
v 0.67162807 -0.07718124 3.21414912
v 0.62304604 -0.15316800 3.38498193
v 0.62082810 -0.23177209 3.21421239
v 0.65714697 -0.07701964 3.32169128
v 0.65542566 -0.15451473 3.15000000
v -0.41863657 0.45462896 3.08675269
v -0.51588356 0.35195859 2.96507267
v -0.38845113 0.45973655 2.98384216
v -0.58815195 0.07609622 2.77213552
v -0.57385980 0.22249596 2.85746992
v -0.30871354 0.43960254 2.78462472
v -0.48083261 0.34887055 2.86003653
v -0.35096270 0.45440199 2.88000065
v -0.44024009 0.40733971 2.91911642
v -0.41863657 -0.45462896 3.08675269
v -0.51588356 -0.35195859 2.96507267
v -0.38845113 -0.45973655 2.98384216
v -0.58815195 -0.07609622 2.77213552
v -0.57385980 -0.22249596 2.85746992
v -0.30871354 -0.43960254 2.78462472
v -0.48083261 -0.34887055 2.86003653
v -0.35096270 -0.45440199 2.88000065
v -0.44024009 -0.40733971 2.91911642
v -0.08921626 -0.28097615 2.47535512
v -0.26085734 -0.21752237 2.49174905
v -0.14485555 -0.33132596 2.53173360
v -0.08952565 -0.20777270 2.42904241
v -0.53301327 -0.04703005 2.66979922
v -0.41264110 -0.13751007 2.55825121
v -0.53900148 -0.12355326 2.70442371
v -0.25278866 -0.41012193 2.68082926
v -0.31853230 -0.26331449 2.55881037
v -0.20128312 -0.37549890 2.60219832
v -0.34909530 -0.37501512 2.70988171
v -0.23538405 -0.29935054 2.53890768
v -0.09048835 -0.04770063 2.37960309
v -0.26260742 -0.13843262 2.45501491
v -0.09029888 -0.12766788 2.39621377
v -0.17957627 -0.17473015 2.43532954
v -0.51539609 -0.27168931 2.79588741
v -0.40902065 -0.21561386 2.59845671
v -0.53274715 -0.20076875 2.74742514
v -0.43967290 -0.32726744 2.74956716
v -0.47757070 -0.17168266 2.64501872
v -0.38369286 -0.29775776 2.64566932
v -0.08921626 0.28097615 2.47535512
v -0.26085734 0.21752237 2.49174905
v -0.14485555 0.33132596 2.53173360
v -0.08952565 0.20777270 2.42904241
v -0.53301327 0.04703005 2.66979922
v -0.41264110 0.13751007 2.55825121
v -0.53900148 0.12355326 2.70442371
v -0.48367158 0.00000000 2.60173252
v -0.25278866 0.41012193 2.68082926
v -0.31853230 0.26331449 2.55881037
v -0.20128312 0.37549890 2.60219832
v -0.34909530 0.37501512 2.70988171
v -0.23538405 0.29935054 2.53890768
v -0.09048835 0.04770063 2.37960309
v -0.26260742 0.13843262 2.45501491
v -0.09029888 0.12766788 2.39621377
v -0.18115520 0.00000000 2.39818821
v -0.17957627 0.17473015 2.43532954
v -0.51539609 0.27168931 2.79588741
v -0.40902065 0.21561386 2.59845671
v -0.53274715 0.20076875 2.74742514
v -0.43967290 0.32726744 2.74956716
v -0.47757070 0.17168266 2.64501872
v -0.38369286 0.29775776 2.64566932
v -0.35309577 -0.09073199 2.49466125
v -0.35309577 0.09073199 2.49466125
v -0.42176292 -0.04706227 2.54144059
v -0.27173280 -0.04774768 2.43787366
v -0.42176292 0.04706227 2.54144059
v -0.27173280 0.04774768 2.43787366
v -0.41863657 0.45462896 3.21324731
v -0.51588356 0.35195859 3.33492733
v -0.38845113 0.45973655 3.31615784
v -0.47797678 0.41254341 3.15000000
v -0.58815195 0.07609622 3.52786448
v -0.57385980 0.22249596 3.44253008
v -0.30871354 0.43960254 3.51537528
v -0.48083261 0.34887055 3.43996347
v -0.35096270 0.45440199 3.41999935
v -0.44024009 0.40733971 3.38088358
v -0.57132096 0.30116992 3.02798112
v -0.57132096 0.30116992 3.27201888
v -0.53053897 0.35973896 3.08670936
v -0.53053897 0.35973896 3.21329064
v -0.41863657 -0.45462896 3.21324731
v -0.51588356 -0.35195859 3.33492733
v -0.38845113 -0.45973655 3.31615784
v -0.47797678 -0.41254341 3.15000000
v -0.58815195 -0.07609622 3.52786448
v -0.57385980 -0.22249596 3.44253008
v -0.30871354 -0.43960254 3.51537528
v -0.48083261 -0.34887055 3.43996347
v -0.35096270 -0.45440199 3.41999935
v -0.44024009 -0.40733971 3.38088358
v -0.57132096 -0.30116992 3.02798112
v -0.57132096 -0.30116992 3.27201888
v -0.53053897 -0.35973896 3.08670936
v -0.53053897 -0.35973896 3.21329064
v -0.08921626 -0.28097615 3.82464488
v -0.26085734 -0.21752237 3.80825095
v -0.14485555 -0.33132596 3.76826640
v -0.08952565 -0.20777270 3.87095759
v -0.53301327 -0.04703005 3.63020078
v -0.41264110 -0.13751007 3.74174879
v -0.53900148 -0.12355326 3.59557629
v -0.25278866 -0.41012193 3.61917074
v -0.31853230 -0.26331449 3.74118963
v -0.20128312 -0.37549890 3.69780168
v -0.34909530 -0.37501512 3.59011829
v -0.23538405 -0.29935054 3.76109232
v -0.09048835 -0.04770063 3.92039691
v -0.26260742 -0.13843262 3.84498509
v -0.09029888 -0.12766788 3.90378623
v -0.17957627 -0.17473015 3.86467046
v -0.51539609 -0.27168931 3.50411259
v -0.40902065 -0.21561386 3.70154329
v -0.53274715 -0.20076875 3.55257486
v -0.43967290 -0.32726744 3.55043284
v -0.47757070 -0.17168266 3.65498128
v -0.38369286 -0.29775776 3.65433068
v -0.08921626 0.28097615 3.82464488
v -0.26085734 0.21752237 3.80825095
v -0.14485555 0.33132596 3.76826640
v -0.08952565 0.20777270 3.87095759
v -0.53301327 0.04703005 3.63020078
v -0.41264110 0.13751007 3.74174879
v -0.53900148 0.12355326 3.59557629
v -0.48367158 0.00000000 3.69826748
v -0.25278866 0.41012193 3.61917074
v -0.31853230 0.26331449 3.74118963
v -0.20128312 0.37549890 3.69780168
v -0.34909530 0.37501512 3.59011829
v -0.23538405 0.29935054 3.76109232
v -0.09048835 0.04770063 3.92039691
v -0.26260742 0.13843262 3.84498509
v -0.09029888 0.12766788 3.90378623
v -0.18115520 0.00000000 3.90181179
v -0.17957627 0.17473015 3.86467046
v -0.51539609 0.27168931 3.50411259
v -0.40902065 0.21561386 3.70154329
v -0.53274715 0.20076875 3.55257486
v -0.43967290 0.32726744 3.55043284
v -0.47757070 0.17168266 3.65498128
v -0.38369286 0.29775776 3.65433068
v -0.35309577 -0.09073199 3.80533875
v -0.35309577 0.09073199 3.80533875
v -0.42176292 -0.04706227 3.75855941
v -0.27173280 -0.04774768 3.86212634
v -0.42176292 0.04706227 3.75855941
v -0.27173280 0.04774768 3.86212634
v -0.62222953 0.00000000 2.83538283
v -0.67349844 0.00000000 3.04239725
v -0.62852713 0.07636012 2.87058154
v -0.62852713 -0.07636012 2.87058154
v -0.62222953 0.00000000 3.46461717
v -0.67349844 0.00000000 3.25760275
v -0.62852713 0.07636012 3.42941846
v -0.62852713 -0.07636012 3.42941846
v -0.60588444 0.22398868 2.96383199
v -0.67162807 0.07718124 3.08585088
v -0.62304604 0.15316800 2.91501807
v -0.62082810 0.23177209 3.08578761
v -0.65714697 0.07701964 2.97830872
v -0.60588444 -0.22398868 2.96383199
v -0.67162807 -0.07718124 3.08585088
v -0.62304604 -0.15316800 2.91501807
v -0.62082810 -0.23177209 3.08578761
v -0.65714697 -0.07701964 2.97830872
v -0.60588444 0.22398868 3.33616801
v -0.67162807 0.07718124 3.21414912
v -0.62304604 0.15316800 3.38498193
v -0.62082810 0.23177209 3.21421239
v -0.65714697 0.07701964 3.32169128
v -0.65542566 0.15451473 3.15000000
v -0.60588444 -0.22398868 3.33616801
v -0.67162807 -0.07718124 3.21414912
v -0.62304604 -0.15316800 3.38498193
v -0.62082810 -0.23177209 3.21421239
v -0.65714697 -0.07701964 3.32169128
v -0.65542566 -0.15451473 3.15000000
v 0.28000000 0.00000000 2.75000000
v 0.20777770 0.00000000 2.72977776
v 0.33377770 0.00000000 2.27977776
v 0.40600000 0.00000000 2.30000000
v 0.21745365 0.03750000 2.73248702
v 0.34345365 0.03750000 2.28248702
v 0.24388885 0.06495191 2.73988888
v 0.36988885 0.06495191 2.28988888
v 0.28000000 0.07500000 2.75000000
v 0.40600000 0.07500000 2.30000000
v 0.31611115 0.06495191 2.76011112
v 0.44211115 0.06495191 2.31011112
v 0.34254635 0.03750000 2.76751298
v 0.46854635 0.03750000 2.31751298
v 0.35222230 0.00000000 2.77022224
v 0.47822230 0.00000000 2.32022224
v 0.34254635 -0.03750000 2.76751298
v 0.46854635 -0.03750000 2.31751298
v 0.31611115 -0.06495191 2.76011112
v 0.44211115 -0.06495191 2.31011112
v 0.28000000 -0.07500000 2.75000000
v 0.40600000 -0.07500000 2.30000000
v 0.24388885 -0.06495191 2.73988888
v 0.36988885 -0.06495191 2.28988888
v 0.21745365 -0.03750000 2.73248702
v 0.34345365 -0.03750000 2.28248702
v 0.40600000 0.00000000 2.30000000
v 0.33157408 0.00000000 2.29073811
v 0.38757408 0.00000000 1.84073811
v 0.46200000 0.00000000 1.85000000
v 0.34154526 0.03750000 2.29197897
v 0.39754526 0.03750000 1.84197897
v 0.36878704 0.06495191 2.29536905
v 0.42478704 0.06495191 1.84536905
v 0.40600000 0.07500000 2.30000000
v 0.46200000 0.07500000 1.85000000
v 0.44321296 0.06495191 2.30463095
v 0.49921296 0.06495191 1.85463095
v 0.47045474 0.03750000 2.30802103
v 0.52645474 0.03750000 1.85802103
v 0.48042592 0.00000000 2.30926189
v 0.53642592 0.00000000 1.85926189
v 0.47045474 -0.03750000 2.30802103
v 0.52645474 -0.03750000 1.85802103
v 0.44321296 -0.06495191 2.30463095
v 0.49921296 -0.06495191 1.85463095
v 0.40600000 -0.07500000 2.30000000
v 0.46200000 -0.07500000 1.85000000
v 0.36878704 -0.06495191 2.29536905
v 0.42478704 -0.06495191 1.84536905
v 0.34154526 -0.03750000 2.29197897
v 0.39754526 -0.03750000 1.84197897
v 0.14000000 0.24248711 2.75000000
v 0.17819442 0.17873799 2.73988888
v 0.24119442 0.28785719 2.28988888
v 0.20300000 0.35160631 2.30000000
v 0.14120278 0.16957039 2.73248702
v 0.20420278 0.27868959 2.28248702
v 0.10388885 0.17994077 2.72977776
v 0.16688885 0.28905997 2.27977776
v 0.07625087 0.20707039 2.73248702
v 0.13925087 0.31618959 2.28248702
v 0.06569442 0.24368989 2.73988888
v 0.12869442 0.35280909 2.28988888
v 0.07504809 0.27998711 2.75000000
v 0.13804809 0.38910631 2.30000000
v 0.10180558 0.30623624 2.76011112
v 0.16480558 0.41535544 2.31011112
v 0.13879722 0.31540384 2.76751298
v 0.20179722 0.42452304 2.31751298
v 0.17611115 0.30503346 2.77022224
v 0.23911115 0.41415266 2.32022224
v 0.20374913 0.27790384 2.76751298
v 0.26674913 0.38702304 2.31751298
v 0.21430558 0.24128433 2.76011112
v 0.27730558 0.35040354 2.31011112
v 0.20495191 0.20498711 2.75000000
v 0.26795191 0.31410631 2.30000000
v 0.20300000 0.35160631 2.30000000
v 0.24064352 0.28690299 2.29536905
v 0.26864352 0.33540042 1.84536905
v 0.23100000 0.40010374 1.85000000
v 0.20324858 0.27703688 2.29197897
v 0.23124858 0.32553430 1.84197897
v 0.16578704 0.28715158 2.29073811
v 0.19378704 0.33564900 1.84073811
v 0.13829668 0.31453688 2.29197897
v 0.16629668 0.36303430 1.84197897
v 0.12814352 0.35185490 2.29536905
v 0.15614352 0.40035232 1.84536905
v 0.13804809 0.38910631 2.30000000
v 0.16604809 0.43760374 1.85000000
v 0.16535648 0.41630963 2.30463095
v 0.19335648 0.46480706 1.85463095
v 0.20275142 0.42617575 2.30802103
v 0.23075142 0.47467318 1.85802103
v 0.24021296 0.41606105 2.30926189
v 0.26821296 0.46455847 1.85926189
v 0.26770332 0.38867575 2.30802103
v 0.29570332 0.43717318 1.85802103
v 0.27785648 0.35135773 2.30463095
v 0.30585648 0.39985515 1.85463095
v 0.26795191 0.31410631 2.30000000
v 0.29595191 0.36260374 1.85000000
v -0.14000000 0.24248711 2.75000000
v -0.10180558 0.30623624 2.76011112
v -0.16480558 0.41535544 2.31011112
v -0.20300000 0.35160631 2.30000000
v -0.07504809 0.27998711 2.75000000
v -0.13804809 0.38910631 2.30000000
v -0.06569442 0.24368989 2.73988888
v -0.12869442 0.35280909 2.28988888
v -0.07625087 0.20707039 2.73248702
v -0.13925087 0.31618959 2.28248702
v -0.10388885 0.17994077 2.72977776
v -0.16688885 0.28905997 2.27977776
v -0.14120278 0.16957039 2.73248702
v -0.20420278 0.27868959 2.28248702
v -0.17819442 0.17873799 2.73988888
v -0.24119442 0.28785719 2.28988888
v -0.20495191 0.20498711 2.75000000
v -0.26795191 0.31410631 2.30000000
v -0.21430558 0.24128433 2.76011112
v -0.27730558 0.35040354 2.31011112
v -0.20374913 0.27790384 2.76751298
v -0.26674913 0.38702304 2.31751298
v -0.17611115 0.30503346 2.77022224
v -0.23911115 0.41415266 2.32022224
v -0.13879722 0.31540384 2.76751298
v -0.20179722 0.42452304 2.31751298
v -0.20300000 0.35160631 2.30000000
v -0.16535648 0.41630963 2.30463095
v -0.19335648 0.46480706 1.85463095
v -0.23100000 0.40010374 1.85000000
v -0.13804809 0.38910631 2.30000000
v -0.16604809 0.43760374 1.85000000
v -0.12814352 0.35185490 2.29536905
v -0.15614352 0.40035232 1.84536905
v -0.13829668 0.31453688 2.29197897
v -0.16629668 0.36303430 1.84197897
v -0.16578704 0.28715158 2.29073811
v -0.19378704 0.33564900 1.84073811
v -0.20324858 0.27703688 2.29197897
v -0.23124858 0.32553430 1.84197897
v -0.24064352 0.28690299 2.29536905
v -0.26864352 0.33540042 1.84536905
v -0.26795191 0.31410631 2.30000000
v -0.29595191 0.36260374 1.85000000
v -0.27785648 0.35135773 2.30463095
v -0.30585648 0.39985515 1.85463095
v -0.26770332 0.38867575 2.30802103
v -0.29570332 0.43717318 1.85802103
v -0.24021296 0.41606105 2.30926189
v -0.26821296 0.46455847 1.85926189
v -0.20275142 0.42617575 2.30802103
v -0.23075142 0.47467318 1.85802103
v -0.28000000 0.00000000 2.75000000
v -0.35222230 0.00000000 2.77022224
v -0.47822230 0.00000000 2.32022224
v -0.40600000 0.00000000 2.30000000
v -0.34254635 0.03750000 2.76751298
v -0.46854635 0.03750000 2.31751298
v -0.31611115 0.06495191 2.76011112
v -0.44211115 0.06495191 2.31011112
v -0.28000000 0.07500000 2.75000000
v -0.40600000 0.07500000 2.30000000
v -0.24388885 0.06495191 2.73988888
v -0.36988885 0.06495191 2.28988888
v -0.21745365 0.03750000 2.73248702
v -0.34345365 0.03750000 2.28248702
v -0.20777770 0.00000000 2.72977776
v -0.33377770 0.00000000 2.27977776
v -0.21745365 -0.03750000 2.73248702
v -0.34345365 -0.03750000 2.28248702
v -0.24388885 -0.06495191 2.73988888
v -0.36988885 -0.06495191 2.28988888
v -0.28000000 -0.07500000 2.75000000
v -0.40600000 -0.07500000 2.30000000
v -0.31611115 -0.06495191 2.76011112
v -0.44211115 -0.06495191 2.31011112
v -0.34254635 -0.03750000 2.76751298
v -0.46854635 -0.03750000 2.31751298
v -0.40600000 0.00000000 2.30000000
v -0.48042592 0.00000000 2.30926189
v -0.53642592 0.00000000 1.85926189
v -0.46200000 0.00000000 1.85000000
v -0.47045474 0.03750000 2.30802103
v -0.52645474 0.03750000 1.85802103
v -0.44321296 0.06495191 2.30463095
v -0.49921296 0.06495191 1.85463095
v -0.40600000 0.07500000 2.30000000
v -0.46200000 0.07500000 1.85000000
v -0.36878704 0.06495191 2.29536905
v -0.42478704 0.06495191 1.84536905
v -0.34154526 0.03750000 2.29197897
v -0.39754526 0.03750000 1.84197897
v -0.33157408 0.00000000 2.29073811
v -0.38757408 0.00000000 1.84073811
v -0.34154526 -0.03750000 2.29197897
v -0.39754526 -0.03750000 1.84197897
v -0.36878704 -0.06495191 2.29536905
v -0.42478704 -0.06495191 1.84536905
v -0.40600000 -0.07500000 2.30000000
v -0.46200000 -0.07500000 1.85000000
v -0.44321296 -0.06495191 2.30463095
v -0.49921296 -0.06495191 1.85463095
v -0.47045474 -0.03750000 2.30802103
v -0.52645474 -0.03750000 1.85802103
v -0.14000000 -0.24248711 2.75000000
v -0.10180558 -0.30623624 2.76011112
v -0.16480558 -0.41535544 2.31011112
v -0.20300000 -0.35160631 2.30000000
v -0.13879722 -0.31540384 2.76751298
v -0.20179722 -0.42452304 2.31751298
v -0.17611115 -0.30503346 2.77022224
v -0.23911115 -0.41415266 2.32022224
v -0.20374913 -0.27790384 2.76751298
v -0.26674913 -0.38702304 2.31751298
v -0.21430558 -0.24128433 2.76011112
v -0.27730558 -0.35040354 2.31011112
v -0.20495191 -0.20498711 2.75000000
v -0.26795191 -0.31410631 2.30000000
v -0.17819442 -0.17873799 2.73988888
v -0.24119442 -0.28785719 2.28988888
v -0.14120278 -0.16957039 2.73248702
v -0.20420278 -0.27868959 2.28248702
v -0.10388885 -0.17994077 2.72977776
v -0.16688885 -0.28905997 2.27977776
v -0.07625087 -0.20707039 2.73248702
v -0.13925087 -0.31618959 2.28248702
v -0.06569442 -0.24368989 2.73988888
v -0.12869442 -0.35280909 2.28988888
v -0.07504809 -0.27998711 2.75000000
v -0.13804809 -0.38910631 2.30000000
v -0.20300000 -0.35160631 2.30000000
v -0.16535648 -0.41630963 2.30463095
v -0.19335648 -0.46480706 1.85463095
v -0.23100000 -0.40010374 1.85000000
v -0.20275142 -0.42617575 2.30802103
v -0.23075142 -0.47467318 1.85802103
v -0.24021296 -0.41606105 2.30926189
v -0.26821296 -0.46455847 1.85926189
v -0.26770332 -0.38867575 2.30802103
v -0.29570332 -0.43717318 1.85802103
v -0.27785648 -0.35135773 2.30463095
v -0.30585648 -0.39985515 1.85463095
v -0.26795191 -0.31410631 2.30000000
v -0.29595191 -0.36260374 1.85000000
v -0.24064352 -0.28690299 2.29536905
v -0.26864352 -0.33540042 1.84536905
v -0.20324858 -0.27703688 2.29197897
v -0.23124858 -0.32553430 1.84197897
v -0.16578704 -0.28715158 2.29073811
v -0.19378704 -0.33564900 1.84073811
v -0.13829668 -0.31453688 2.29197897
v -0.16629668 -0.36303430 1.84197897
v -0.12814352 -0.35185490 2.29536905
v -0.15614352 -0.40035232 1.84536905
v -0.13804809 -0.38910631 2.30000000
v -0.16604809 -0.43760374 1.85000000
v 0.14000000 -0.24248711 2.75000000
v 0.17819442 -0.17873799 2.73988888
v 0.24119442 -0.28785719 2.28988888
v 0.20300000 -0.35160631 2.30000000
v 0.20495191 -0.20498711 2.75000000
v 0.26795191 -0.31410631 2.30000000
v 0.21430558 -0.24128433 2.76011112
v 0.27730558 -0.35040354 2.31011112
v 0.20374913 -0.27790384 2.76751298
v 0.26674913 -0.38702304 2.31751298
v 0.17611115 -0.30503346 2.77022224
v 0.23911115 -0.41415266 2.32022224
v 0.13879722 -0.31540384 2.76751298
v 0.20179722 -0.42452304 2.31751298
v 0.10180558 -0.30623624 2.76011112
v 0.16480558 -0.41535544 2.31011112
v 0.07504809 -0.27998711 2.75000000
v 0.13804809 -0.38910631 2.30000000
v 0.06569442 -0.24368989 2.73988888
v 0.12869442 -0.35280909 2.28988888
v 0.07625087 -0.20707039 2.73248702
v 0.13925087 -0.31618959 2.28248702
v 0.10388885 -0.17994077 2.72977776
v 0.16688885 -0.28905997 2.27977776
v 0.14120278 -0.16957039 2.73248702
v 0.20420278 -0.27868959 2.28248702
v 0.20300000 -0.35160631 2.30000000
v 0.24064352 -0.28690299 2.29536905
v 0.26864352 -0.33540042 1.84536905
v 0.23100000 -0.40010374 1.85000000
v 0.26795191 -0.31410631 2.30000000
v 0.29595191 -0.36260374 1.85000000
v 0.27785648 -0.35135773 2.30463095
v 0.30585648 -0.39985515 1.85463095
v 0.26770332 -0.38867575 2.30802103
v 0.29570332 -0.43717318 1.85802103
v 0.24021296 -0.41606105 2.30926189
v 0.26821296 -0.46455847 1.85926189
v 0.20275142 -0.42617575 2.30802103
v 0.23075142 -0.47467318 1.85802103
v 0.16535648 -0.41630963 2.30463095
v 0.19335648 -0.46480706 1.85463095
v 0.13804809 -0.38910631 2.30000000
v 0.16604809 -0.43760374 1.85000000
v 0.12814352 -0.35185490 2.29536905
v 0.15614352 -0.40035232 1.84536905
v 0.13829668 -0.31453688 2.29197897
v 0.16629668 -0.36303430 1.84197897
v 0.16578704 -0.28715158 2.29073811
v 0.19378704 -0.33564900 1.84073811
v 0.20324858 -0.27703688 2.29197897
v 0.23124858 -0.32553430 1.84197897
f 2 1 5
f 2 5 3
f 3 5 6
f 3 6 4
f 5 1 7
f 5 7 6
f 6 7 8
f 6 8 4
f 7 1 9
f 7 9 8
f 8 9 10
f 8 10 4
f 9 1 11
f 9 11 10
f 10 11 12
f 10 12 4
f 11 1 13
f 11 13 12
f 12 13 14
f 12 14 4
f 13 1 15
f 13 15 14
f 14 15 16
f 14 16 4
f 15 1 17
f 15 17 16
f 16 17 18
f 16 18 4
f 17 1 19
f 17 19 18
f 18 19 20
f 18 20 4
f 19 1 21
f 19 21 20
f 20 21 22
f 20 22 4
f 21 1 23
f 21 23 22
f 22 23 24
f 22 24 4
f 23 1 25
f 23 25 24
f 24 25 26
f 24 26 4
f 25 1 27
f 25 27 26
f 26 27 28
f 26 28 4
f 27 1 29
f 27 29 28
f 28 29 30
f 28 30 4
f 29 1 31
f 29 31 30
f 30 31 32
f 30 32 4
f 31 1 33
f 31 33 32
f 32 33 34
f 32 34 4
f 33 1 35
f 33 35 34
f 34 35 36
f 34 36 4
f 35 1 37
f 35 37 36
f 36 37 38
f 36 38 4
f 37 1 39
f 37 39 38
f 38 39 40
f 38 40 4
f 39 1 41
f 39 41 40
f 40 41 42
f 40 42 4
f 41 1 43
f 41 43 42
f 42 43 44
f 42 44 4
f 43 1 45
f 43 45 44
f 44 45 46
f 44 46 4
f 45 1 47
f 45 47 46
f 46 47 48
f 46 48 4
f 47 1 49
f 47 49 48
f 48 49 50
f 48 50 4
f 49 1 51
f 49 51 50
f 50 51 52
f 50 52 4
f 51 1 53
f 51 53 52
f 52 53 54
f 52 54 4
f 53 1 55
f 53 55 54
f 54 55 56
f 54 56 4
f 55 1 57
f 55 57 56
f 56 57 58
f 56 58 4
f 57 1 59
f 57 59 58
f 58 59 60
f 58 60 4
f 59 1 61
f 59 61 60
f 60 61 62
f 60 62 4
f 61 1 63
f 61 63 62
f 62 63 64
f 62 64 4
f 63 1 65
f 63 65 64
f 64 65 66
f 64 66 4
f 65 1 2
f 65 2 66
f 66 2 3
f 66 3 4
f 68 67 70
f 68 70 69
f 70 67 71
f 70 71 69
f 71 67 72
f 71 72 69
f 72 67 73
f 72 73 69
f 73 67 74
f 73 74 69
f 74 67 75
f 74 75 69
f 75 67 76
f 75 76 69
f 76 67 77
f 76 77 69
f 77 67 78
f 77 78 69
f 78 67 79
f 78 79 69
f 79 67 80
f 79 80 69
f 80 67 81
f 80 81 69
f 81 67 82
f 81 82 69
f 82 67 83
f 82 83 69
f 83 67 84
f 83 84 69
f 84 67 85
f 84 85 69
f 85 67 86
f 85 86 69
f 86 67 87
f 86 87 69
f 87 67 88
f 87 88 69
f 88 67 89
f 88 89 69
f 89 67 90
f 89 90 69
f 90 67 91
f 90 91 69
f 91 67 92
f 91 92 69
f 92 67 93
f 92 93 69
f 93 67 94
f 93 94 69
f 94 67 95
f 94 95 69
f 95 67 96
f 95 96 69
f 96 67 68
f 96 68 69
f 97 629 293
f 629 234 631
f 293 631 150
f 629 631 293
f 234 630 638
f 630 134 636
f 638 636 236
f 630 636 638
f 150 637 294
f 637 236 635
f 294 635 113
f 637 635 294
f 234 638 631
f 638 236 637
f 631 637 150
f 638 637 631
f 134 634 697
f 634 235 699
f 697 699 251
f 634 699 697
f 235 633 685
f 633 108 683
f 685 683 248
f 633 683 685
f 251 701 698
f 701 248 684
f 698 684 137
f 701 684 698
f 235 685 699
f 685 248 701
f 699 701 251
f 685 701 699
f 113 687 297
f 687 249 689
f 297 689 151
f 687 689 297
f 249 688 691
f 688 137 680
f 691 680 247
f 688 680 691
f 151 681 296
f 681 247 679
f 296 679 102
f 681 679 296
f 249 691 689
f 691 247 681
f 689 681 151
f 691 681 689
f 134 697 636
f 697 251 700
f 636 700 236
f 697 700 636
f 251 698 702
f 698 137 688
f 702 688 249
f 698 688 702
f 236 690 635
f 690 249 687
f 635 687 113
f 690 687 635
f 251 702 700
f 702 249 690
f 700 690 236
f 702 690 700
f 97 293 259
f 293 150 295
f 259 295 139
f 293 295 259
f 150 294 301
f 294 113 299
f 301 299 152
f 294 299 301
f 139 300 260
f 300 152 298
f 260 298 109
f 300 298 260
f 150 301 295
f 301 152 300
f 295 300 139
f 301 300 295
f 113 297 313
f 297 151 315
f 313 315 156
f 297 315 313
f 151 296 307
f 296 102 305
f 307 305 154
f 296 305 307
f 156 317 314
f 317 154 306
f 314 306 114
f 317 306 314
f 151 307 315
f 307 154 317
f 315 317 156
f 307 317 315
f 109 308 262
f 308 155 310
f 262 310 140
f 308 310 262
f 155 309 312
f 309 114 303
f 312 303 153
f 309 303 312
f 140 304 261
f 304 153 302
f 261 302 98
f 304 302 261
f 155 312 310
f 312 153 304
f 310 304 140
f 312 304 310
f 113 313 299
f 313 156 316
f 299 316 152
f 313 316 299
f 156 314 318
f 314 114 309
f 318 309 155
f 314 309 318
f 152 311 298
f 311 155 308
f 298 308 109
f 311 308 298
f 156 318 316
f 318 155 311
f 316 311 152
f 318 311 316
f 97 259 349
f 259 139 351
f 349 351 166
f 259 351 349
f 139 260 356
f 260 109 354
f 356 354 168
f 260 354 356
f 166 357 350
f 357 168 355
f 350 355 118
f 357 355 350
f 139 356 351
f 356 168 357
f 351 357 166
f 356 357 351
f 109 262 364
f 262 140 366
f 364 366 171
f 262 366 364
f 140 261 360
f 261 98 358
f 360 358 169
f 261 358 360
f 171 368 365
f 368 169 359
f 365 359 119
f 368 359 365
f 140 360 366
f 360 169 368
f 366 368 171
f 360 368 366
f 118 369 353
f 369 172 371
f 353 371 167
f 369 371 353
f 172 370 373
f 370 119 362
f 373 362 170
f 370 362 373
f 167 363 352
f 363 170 361
f 352 361 104
f 363 361 352
f 172 373 371
f 373 170 363
f 371 363 167
f 373 363 371
f 109 364 354
f 364 171 367
f 354 367 168
f 364 367 354
f 171 365 374
f 365 119 370
f 374 370 172
f 365 370 374
f 168 372 355
f 372 172 369
f 355 369 118
f 372 369 355
f 171 374 367
f 374 172 372
f 367 372 168
f 374 372 367
f 97 349 559
f 349 166 561
f 559 561 217
f 349 561 559
f 166 350 566
f 350 118 564
f 566 564 219
f 350 564 566
f 217 567 560
f 567 219 565
f 560 565 130
f 567 565 560
f 166 566 561
f 566 219 567
f 561 567 217
f 566 567 561
f 118 353 607
f 353 167 609
f 607 609 230
f 353 609 607
f 167 352 601
f 352 104 599
f 601 599 228
f 352 599 601
f 230 611 608
f 611 228 600
f 608 600 133
f 611 600 608
f 167 601 609
f 601 228 611
f 609 611 230
f 601 611 609
f 130 617 563
f 617 232 619
f 563 619 218
f 617 619 563
f 232 618 621
f 618 133 604
f 621 604 229
f 618 604 621
f 218 605 562
f 605 229 603
f 562 603 107
f 605 603 562
f 232 621 619
f 621 229 605
f 619 605 218
f 621 605 619
f 118 607 564
f 607 230 610
f 564 610 219
f 607 610 564
f 230 608 622
f 608 133 618
f 622 618 232
f 608 618 622
f 219 620 565
f 620 232 617
f 565 617 130
f 620 617 565
f 230 622 610
f 622 232 620
f 610 620 219
f 622 620 610
f 97 559 629
f 559 217 632
f 629 632 234
f 559 632 629
f 217 560 641
f 560 130 639
f 641 639 237
f 560 639 641
f 234 642 630
f 642 237 640
f 630 640 134
f 642 640 630
f 217 641 632
f 641 237 642
f 632 642 234
f 641 642 632
f 130 563 717
f 563 218 719
f 717 719 255
f 563 719 717
f 218 562 711
f 562 107 709
f 711 709 253
f 562 709 711
f 255 721 718
f 721 253 710
f 718 710 138
f 721 710 718
f 218 711 719
f 711 253 721
f 719 721 255
f 711 721 719
f 134 727 634
f 727 257 729
f 634 729 235
f 727 729 634
f 257 728 731
f 728 138 714
f 731 714 254
f 728 714 731
f 235 715 633
f 715 254 713
f 633 713 108
f 715 713 633
f 257 731 729
f 731 254 715
f 729 715 235
f 731 715 729
f 130 717 639
f 717 255 720
f 639 720 237
f 717 720 639
f 255 718 732
f 718 138 728
f 732 728 257
f 718 728 732
f 237 730 640
f 730 257 727
f 640 727 134
f 730 727 640
f 255 732 720
f 732 257 730
f 720 730 237
f 732 730 720
f 98 302 449
f 302 153 451
f 449 451 192
f 302 451 449
f 153 303 457
f 303 114 455
f 457 455 194
f 303 455 457
f 192 458 450
f 458 194 456
f 450 456 125
f 458 456 450
f 153 457 451
f 457 194 458
f 451 458 192
f 457 458 451
f 114 306 507
f 306 154 509
f 507 509 207
f 306 509 507
f 154 305 501
f 305 102 499
f 501 499 205
f 305 499 501
f 207 511 508
f 511 205 500
f 508 500 128
f 511 500 508
f 154 501 509
f 501 205 511
f 509 511 207
f 501 511 509
f 125 517 454
f 517 209 519
f 454 519 193
f 517 519 454
f 209 518 521
f 518 128 504
f 521 504 206
f 518 504 521
f 193 505 453
f 505 206 503
f 453 503 106
f 505 503 453
f 209 521 519
f 521 206 505
f 519 505 193
f 521 505 519
f 114 507 455
f 507 207 510
f 455 510 194
f 507 510 455
f 207 508 522
f 508 128 518
f 522 518 209
f 508 518 522
f 194 520 456
f 520 209 517
f 456 517 125
f 520 517 456
f 207 522 510
f 522 209 520
f 510 520 194
f 522 520 510
f 102 679 321
f 679 247 682
f 321 682 158
f 679 682 321
f 247 680 696
f 680 137 693
f 696 693 250
f 680 693 696
f 158 694 322
f 694 250 692
f 322 692 115
f 694 692 322
f 247 696 682
f 696 250 694
f 682 694 158
f 696 694 682
f 137 684 704
f 684 248 707
f 704 707 252
f 684 707 704
f 248 683 686
f 683 108 661
f 686 661 243
f 683 661 686
f 252 705 703
f 705 243 662
f 703 662 136
f 705 662 703
f 248 686 707
f 686 243 705
f 707 705 252
f 686 705 707
f 115 669 320
f 669 245 671
f 320 671 157
f 669 671 320
f 245 670 672
f 670 136 658
f 672 658 242
f 670 658 672
f 157 660 319
f 660 242 657
f 319 657 101
f 660 657 319
f 245 672 671
f 672 242 660
f 671 660 157
f 672 660 671
f 137 704 693
f 704 252 708
f 693 708 250
f 704 708 693
f 252 703 706
f 703 136 670
f 706 670 245
f 703 670 706
f 250 695 692
f 695 245 669
f 692 669 115
f 695 669 692
f 252 706 708
f 706 245 695
f 708 695 250
f 706 695 708
f 108 713 647
f 713 254 716
f 647 716 239
f 713 716 647
f 254 714 737
f 714 138 734
f 737 734 258
f 714 734 737
f 239 735 648
f 735 258 733
f 648 733 135
f 735 733 648
f 254 737 716
f 737 258 735
f 716 735 239
f 737 735 716
f 138 710 723
f 710 253 726
f 723 726 256
f 710 726 723
f 253 709 712
f 709 107 571
f 712 571 221
f 709 571 712
f 256 724 722
f 724 221 572
f 722 572 131
f 724 572 722
f 253 712 726
f 712 221 724
f 726 724 256
f 712 724 726
f 135 654 644
f 654 241 656
f 644 656 238
f 654 656 644
f 241 653 655
f 653 131 569
f 655 569 220
f 653 569 655
f 238 646 643
f 646 220 568
f 643 568 99
f 646 568 643
f 241 655 656
f 655 220 646
f 656 646 238
f 655 646 656
f 138 723 734
f 723 256 738
f 734 738 258
f 723 738 734
f 256 722 725
f 722 131 653
f 725 653 241
f 722 653 725
f 258 736 733
f 736 241 654
f 733 654 135
f 736 654 733
f 256 725 738
f 725 241 736
f 738 736 258
f 725 736 738
f 107 603 581
f 603 229 606
f 581 606 224
f 603 606 581
f 229 604 627
f 604 133 624
f 627 624 233
f 604 624 627
f 224 625 582
f 625 233 623
f 582 623 132
f 625 623 582
f 229 627 606
f 627 233 625
f 606 625 224
f 627 625 606
f 133 600 613
f 600 228 616
f 613 616 231
f 600 616 613
f 228 599 602
f 599 104 377
f 602 377 174
f 599 377 602
f 231 614 612
f 614 174 378
f 612 378 120
f 614 378 612
f 228 602 616
f 602 174 614
f 616 614 231
f 602 614 616
f 132 590 578
f 590 226 592
f 578 592 223
f 590 592 578
f 226 589 591
f 589 120 376
f 591 376 173
f 589 376 591
f 223 580 577
f 580 173 375
f 577 375 103
f 580 375 577
f 226 591 592
f 591 173 580
f 592 580 223
f 591 580 592
f 133 613 624
f 613 231 628
f 624 628 233
f 613 628 624
f 231 612 615
f 612 120 589
f 615 589 226
f 612 589 615
f 233 626 623
f 626 226 590
f 623 590 132
f 626 590 623
f 231 615 628
f 615 226 626
f 628 626 233
f 615 626 628
f 104 361 419
f 361 170 421
f 419 421 186
f 361 421 419
f 170 362 429
f 362 119 427
f 429 427 188
f 362 427 429
f 186 431 420
f 431 188 428
f 420 428 124
f 431 428 420
f 170 429 421
f 429 188 431
f 421 431 186
f 429 431 421
f 119 359 384
f 359 169 386
f 384 386 177
f 359 386 384
f 169 358 381
f 358 98 379
f 381 379 175
f 358 379 381
f 177 387 385
f 387 175 380
f 385 380 121
f 387 380 385
f 169 381 386
f 381 175 387
f 386 387 177
f 381 387 386
f 124 438 424
f 438 190 441
f 424 441 187
f 438 441 424
f 190 437 439
f 437 121 383
f 439 383 176
f 437 383 439
f 187 425 423
f 425 176 382
f 423 382 105
f 425 382 423
f 190 439 441
f 439 176 425
f 441 425 187
f 439 425 441
f 119 384 427
f 384 177 430
f 427 430 188
f 384 430 427
f 177 385 440
f 385 121 437
f 440 437 190
f 385 437 440
f 188 442 428
f 442 190 438
f 428 438 124
f 442 438 428
f 177 440 430
f 440 190 442
f 430 442 188
f 440 442 430
f 100 463 276
f 463 196 465
f 276 465 146
f 463 465 276
f 196 464 472
f 464 126 470
f 472 470 198
f 464 470 472
f 146 471 277
f 471 198 469
f 277 469 112
f 471 469 277
f 196 472 465
f 472 198 471
f 465 471 146
f 472 471 465
f 126 468 493
f 468 197 495
f 493 495 204
f 468 495 493
f 197 467 483
f 467 106 481
f 483 481 201
f 467 481 483
f 204 497 494
f 497 201 482
f 494 482 127
f 497 482 494
f 197 483 495
f 483 201 497
f 495 497 204
f 483 497 495
f 112 484 280
f 484 202 486
f 280 486 147
f 484 486 280
f 202 485 488
f 485 127 478
f 488 478 200
f 485 478 488
f 147 479 279
f 479 200 477
f 279 477 101
f 479 477 279
f 202 488 486
f 488 200 479
f 486 479 147
f 488 479 486
f 126 493 470
f 493 204 496
f 470 496 198
f 493 496 470
f 204 494 498
f 494 127 485
f 498 485 202
f 494 485 498
f 198 487 469
f 487 202 484
f 469 484 112
f 487 484 469
f 204 498 496
f 498 202 487
f 496 487 198
f 498 487 496
f 100 276 265
f 276 146 278
f 265 278 142
f 276 278 265
f 146 277 286
f 277 112 283
f 286 283 148
f 277 283 286
f 142 284 266
f 284 148 282
f 266 282 110
f 284 282 266
f 146 286 278
f 286 148 284
f 278 284 142
f 286 284 278
f 112 280 288
f 280 147 291
f 288 291 149
f 280 291 288
f 147 279 281
f 279 101 270
f 281 270 144
f 279 270 281
f 149 289 287
f 289 144 271
f 287 271 111
f 289 271 287
f 147 281 291
f 281 144 289
f 291 289 149
f 281 289 291
f 110 272 264
f 272 145 274
f 264 274 141
f 272 274 264
f 145 273 275
f 273 111 268
f 275 268 143
f 273 268 275
f 141 269 263
f 269 143 267
f 263 267 99
f 269 267 263
f 145 275 274
f 275 143 269
f 274 269 141
f 275 269 274
f 112 288 283
f 288 149 292
f 283 292 148
f 288 292 283
f 149 287 290
f 287 111 273
f 290 273 145
f 287 273 290
f 148 285 282
f 285 145 272
f 282 272 110
f 285 272 282
f 149 290 292
f 290 145 285
f 292 285 148
f 290 285 292
f 100 265 332
f 265 142 334
f 332 334 162
f 265 334 332
f 142 266 340
f 266 110 338
f 340 338 164
f 266 338 340
f 162 342 333
f 342 164 339
f 333 339 117
f 342 339 333
f 142 340 334
f 340 164 342
f 334 342 162
f 340 342 334
f 110 264 328
f 264 141 330
f 328 330 161
f 264 330 328
f 141 263 325
f 263 99 323
f 325 323 159
f 263 323 325
f 161 331 329
f 331 159 324
f 329 324 116
f 331 324 329
f 141 325 330
f 325 159 331
f 330 331 161
f 325 331 330
f 117 344 336
f 344 165 347
f 336 347 163
f 344 347 336
f 165 343 345
f 343 116 327
f 345 327 160
f 343 327 345
f 163 337 335
f 337 160 326
f 335 326 103
f 337 326 335
f 165 345 347
f 345 160 337
f 347 337 163
f 345 337 347
f 110 328 338
f 328 161 341
f 338 341 164
f 328 341 338
f 161 329 346
f 329 116 343
f 346 343 165
f 329 343 346
f 164 348 339
f 348 165 344
f 339 344 117
f 348 344 339
f 161 346 341
f 346 165 348
f 341 348 164
f 346 348 341
f 100 332 388
f 332 162 390
f 388 390 178
f 332 390 388
f 162 333 395
f 333 117 393
f 395 393 180
f 333 393 395
f 178 396 389
f 396 180 394
f 389 394 122
f 396 394 389
f 162 395 390
f 395 180 396
f 390 396 178
f 395 396 390
f 117 336 404
f 336 163 406
f 404 406 183
f 336 406 404
f 163 335 399
f 335 103 397
f 399 397 181
f 335 397 399
f 183 408 405
f 408 181 398
f 405 398 123
f 408 398 405
f 163 399 406
f 399 181 408
f 406 408 183
f 399 408 406
f 122 413 392
f 413 185 415
f 392 415 179
f 413 415 392
f 185 414 417
f 414 123 402
f 417 402 182
f 414 402 417
f 179 403 391
f 403 182 401
f 391 401 105
f 403 401 391
f 185 417 415
f 417 182 403
f 415 403 179
f 417 403 415
f 117 404 393
f 404 183 407
f 393 407 180
f 404 407 393
f 183 405 418
f 405 123 414
f 418 414 185
f 405 414 418
f 180 416 394
f 416 185 413
f 394 413 122
f 416 413 394
f 183 418 407
f 418 185 416
f 407 416 180
f 418 416 407
f 100 388 463
f 388 178 466
f 463 466 196
f 388 466 463
f 178 389 475
f 389 122 473
f 475 473 199
f 389 473 475
f 196 476 464
f 476 199 474
f 464 474 126
f 476 474 464
f 178 475 466
f 475 199 476
f 466 476 196
f 475 476 466
f 122 392 542
f 392 179 544
f 542 544 214
f 392 544 542
f 179 391 532
f 391 105 529
f 532 529 211
f 391 529 532
f 214 546 543
f 546 211 530
f 543 530 129
f 546 530 543
f 179 532 544
f 532 211 546
f 544 546 214
f 532 546 544
f 126 553 468
f 553 216 555
f 468 555 197
f 553 555 468
f 216 554 557
f 554 129 534
f 557 534 212
f 554 534 557
f 197 536 467
f 536 212 533
f 467 533 106
f 536 533 467
f 216 557 555
f 557 212 536
f 555 536 197
f 557 536 555
f 122 542 473
f 542 214 545
f 473 545 199
f 542 545 473
f 214 543 558
f 543 129 554
f 558 554 216
f 543 554 558
f 199 556 474
f 556 216 553
f 474 553 126
f 556 553 474
f 214 558 545
f 558 216 556
f 545 556 199
f 558 556 545
f 101 477 319
f 477 200 480
f 319 480 157
f 477 480 319
f 200 478 492
f 478 127 490
f 492 490 203
f 478 490 492
f 157 491 320
f 491 203 489
f 320 489 115
f 491 489 320
f 200 492 480
f 492 203 491
f 480 491 157
f 492 491 480
f 127 482 523
f 482 201 525
f 523 525 210
f 482 525 523
f 201 481 506
f 481 106 503
f 506 503 206
f 481 503 506
f 210 527 524
f 527 206 504
f 524 504 128
f 527 504 524
f 201 506 525
f 506 206 527
f 525 527 210
f 506 527 525
f 115 512 322
f 512 208 514
f 322 514 158
f 512 514 322
f 208 513 516
f 513 128 500
f 516 500 205
f 513 500 516
f 158 502 321
f 502 205 499
f 321 499 102
f 502 499 321
f 208 516 514
f 516 205 502
f 514 502 158
f 516 502 514
f 127 523 490
f 523 210 526
f 490 526 203
f 523 526 490
f 210 524 528
f 524 128 513
f 528 513 208
f 524 513 528
f 203 515 489
f 515 208 512
f 489 512 115
f 515 512 489
f 210 528 526
f 528 208 515
f 526 515 203
f 528 515 526
f 99 267 643
f 267 143 645
f 643 645 238
f 267 645 643
f 143 268 651
f 268 111 649
f 651 649 240
f 268 649 651
f 238 652 644
f 652 240 650
f 644 650 135
f 652 650 644
f 143 651 645
f 651 240 652
f 645 652 238
f 651 652 645
f 111 271 664
f 271 144 666
f 664 666 244
f 271 666 664
f 144 270 659
f 270 101 657
f 659 657 242
f 270 657 659
f 244 668 665
f 668 242 658
f 665 658 136
f 668 658 665
f 144 659 666
f 659 242 668
f 666 668 244
f 659 668 666
f 135 673 648
f 673 246 675
f 648 675 239
f 673 675 648
f 246 674 677
f 674 136 662
f 677 662 243
f 674 662 677
f 239 663 647
f 663 243 661
f 647 661 108
f 663 661 647
f 246 677 675
f 677 243 663
f 675 663 239
f 677 663 675
f 111 664 649
f 664 244 667
f 649 667 240
f 664 667 649
f 244 665 678
f 665 136 674
f 678 674 246
f 665 674 678
f 240 676 650
f 676 246 673
f 650 673 135
f 676 673 650
f 244 678 667
f 678 246 676
f 667 676 240
f 678 676 667
f 103 326 577
f 326 160 579
f 577 579 223
f 326 579 577
f 160 327 586
f 327 116 584
f 586 584 225
f 327 584 586
f 223 588 578
f 588 225 585
f 578 585 132
f 588 585 578
f 160 586 579
f 586 225 588
f 579 588 223
f 586 588 579
f 116 324 573
f 324 159 575
f 573 575 222
f 324 575 573
f 159 323 570
f 323 99 568
f 570 568 220
f 323 568 570
f 222 576 574
f 576 220 569
f 574 569 131
f 576 569 574
f 159 570 575
f 570 220 576
f 575 576 222
f 570 576 575
f 132 594 582
f 594 227 597
f 582 597 224
f 594 597 582
f 227 593 595
f 593 131 572
f 595 572 221
f 593 572 595
f 224 583 581
f 583 221 571
f 581 571 107
f 583 571 581
f 227 595 597
f 595 221 583
f 597 583 224
f 595 583 597
f 116 573 584
f 573 222 587
f 584 587 225
f 573 587 584
f 222 574 596
f 574 131 593
f 596 593 227
f 574 593 596
f 225 598 585
f 598 227 594
f 585 594 132
f 598 594 585
f 222 596 587
f 596 227 598
f 587 598 225
f 596 598 587
f 105 401 423
f 401 182 426
f 423 426 187
f 401 426 423
f 182 402 445
f 402 123 443
f 445 443 191
f 402 443 445
f 187 447 424
f 447 191 444
f 424 444 124
f 447 444 424
f 182 445 426
f 445 191 447
f 426 447 187
f 445 447 426
f 123 398 410
f 398 181 412
f 410 412 184
f 398 412 410
f 181 397 400
f 397 103 375
f 400 375 173
f 397 375 400
f 184 411 409
f 411 173 376
f 409 376 120
f 411 376 409
f 181 400 412
f 400 173 411
f 412 411 184
f 400 411 412
f 124 433 420
f 433 189 436
f 420 436 186
f 433 436 420
f 189 432 434
f 432 120 378
f 434 378 174
f 432 378 434
f 186 422 419
f 422 174 377
f 419 377 104
f 422 377 419
f 189 434 436
f 434 174 422
f 436 422 186
f 434 422 436
f 123 410 443
f 410 184 446
f 443 446 191
f 410 446 443
f 184 409 435
f 409 120 432
f 435 432 189
f 409 432 435
f 191 448 444
f 448 189 433
f 444 433 124
f 448 433 444
f 184 435 446
f 435 189 448
f 446 448 191
f 435 448 446
f 106 533 453
f 533 212 535
f 453 535 193
f 533 535 453
f 212 534 551
f 534 129 548
f 551 548 215
f 534 548 551
f 193 549 454
f 549 215 547
f 454 547 125
f 549 547 454
f 212 551 535
f 551 215 549
f 535 549 193
f 551 549 535
f 129 530 538
f 530 211 541
f 538 541 213
f 530 541 538
f 211 529 531
f 529 105 382
f 531 382 176
f 529 382 531
f 213 539 537
f 539 176 383
f 537 383 121
f 539 383 537
f 211 531 541
f 531 176 539
f 541 539 213
f 531 539 541
f 125 460 450
f 460 195 462
f 450 462 192
f 460 462 450
f 195 459 461
f 459 121 380
f 461 380 175
f 459 380 461
f 192 452 449
f 452 175 379
f 449 379 98
f 452 379 449
f 195 461 462
f 461 175 452
f 462 452 192
f 461 452 462
f 129 538 548
f 538 213 552
f 548 552 215
f 538 552 548
f 213 537 540
f 537 121 459
f 540 459 195
f 537 459 540
f 215 550 547
f 550 195 460
f 547 460 125
f 550 460 547
f 213 540 552
f 540 195 550
f 552 550 215
f 540 550 552
f 740 739 743
f 740 743 741
f 741 743 744
f 741 744 742
f 743 739 745
f 743 745 744
f 744 745 746
f 744 746 742
f 745 739 747
f 745 747 746
f 746 747 748
f 746 748 742
f 747 739 749
f 747 749 748
f 748 749 750
f 748 750 742
f 749 739 751
f 749 751 750
f 750 751 752
f 750 752 742
f 751 739 753
f 751 753 752
f 752 753 754
f 752 754 742
f 753 739 755
f 753 755 754
f 754 755 756
f 754 756 742
f 755 739 757
f 755 757 756
f 756 757 758
f 756 758 742
f 757 739 759
f 757 759 758
f 758 759 760
f 758 760 742
f 759 739 761
f 759 761 760
f 760 761 762
f 760 762 742
f 761 739 763
f 761 763 762
f 762 763 764
f 762 764 742
f 763 739 740
f 763 740 764
f 764 740 741
f 764 741 742
f 766 765 769
f 766 769 767
f 767 769 770
f 767 770 768
f 769 765 771
f 769 771 770
f 770 771 772
f 770 772 768
f 771 765 773
f 771 773 772
f 772 773 774
f 772 774 768
f 773 765 775
f 773 775 774
f 774 775 776
f 774 776 768
f 775 765 777
f 775 777 776
f 776 777 778
f 776 778 768
f 777 765 779
f 777 779 778
f 778 779 780
f 778 780 768
f 779 765 781
f 779 781 780
f 780 781 782
f 780 782 768
f 781 765 783
f 781 783 782
f 782 783 784
f 782 784 768
f 783 765 785
f 783 785 784
f 784 785 786
f 784 786 768
f 785 765 787
f 785 787 786
f 786 787 788
f 786 788 768
f 787 765 789
f 787 789 788
f 788 789 790
f 788 790 768
f 789 765 766
f 789 766 790
f 790 766 767
f 790 767 768
f 792 791 795
f 792 795 793
f 793 795 796
f 793 796 794
f 795 791 797
f 795 797 796
f 796 797 798
f 796 798 794
f 797 791 799
f 797 799 798
f 798 799 800
f 798 800 794
f 799 791 801
f 799 801 800
f 800 801 802
f 800 802 794
f 801 791 803
f 801 803 802
f 802 803 804
f 802 804 794
f 803 791 805
f 803 805 804
f 804 805 806
f 804 806 794
f 805 791 807
f 805 807 806
f 806 807 808
f 806 808 794
f 807 791 809
f 807 809 808
f 808 809 810
f 808 810 794
f 809 791 811
f 809 811 810
f 810 811 812
f 810 812 794
f 811 791 813
f 811 813 812
f 812 813 814
f 812 814 794
f 813 791 815
f 813 815 814
f 814 815 816
f 814 816 794
f 815 791 792
f 815 792 816
f 816 792 793
f 816 793 794
f 818 817 821
f 818 821 819
f 819 821 822
f 819 822 820
f 821 817 823
f 821 823 822
f 822 823 824
f 822 824 820
f 823 817 825
f 823 825 824
f 824 825 826
f 824 826 820
f 825 817 827
f 825 827 826
f 826 827 828
f 826 828 820
f 827 817 829
f 827 829 828
f 828 829 830
f 828 830 820
f 829 817 831
f 829 831 830
f 830 831 832
f 830 832 820
f 831 817 833
f 831 833 832
f 832 833 834
f 832 834 820
f 833 817 835
f 833 835 834
f 834 835 836
f 834 836 820
f 835 817 837
f 835 837 836
f 836 837 838
f 836 838 820
f 837 817 839
f 837 839 838
f 838 839 840
f 838 840 820
f 839 817 841
f 839 841 840
f 840 841 842
f 840 842 820
f 841 817 818
f 841 818 842
f 842 818 819
f 842 819 820
f 844 843 847
f 844 847 845
f 845 847 848
f 845 848 846
f 847 843 849
f 847 849 848
f 848 849 850
f 848 850 846
f 849 843 851
f 849 851 850
f 850 851 852
f 850 852 846
f 851 843 853
f 851 853 852
f 852 853 854
f 852 854 846
f 853 843 855
f 853 855 854
f 854 855 856
f 854 856 846
f 855 843 857
f 855 857 856
f 856 857 858
f 856 858 846
f 857 843 859
f 857 859 858
f 858 859 860
f 858 860 846
f 859 843 861
f 859 861 860
f 860 861 862
f 860 862 846
f 861 843 863
f 861 863 862
f 862 863 864
f 862 864 846
f 863 843 865
f 863 865 864
f 864 865 866
f 864 866 846
f 865 843 867
f 865 867 866
f 866 867 868
f 866 868 846
f 867 843 844
f 867 844 868
f 868 844 845
f 868 845 846
f 870 869 873
f 870 873 871
f 871 873 874
f 871 874 872
f 873 869 875
f 873 875 874
f 874 875 876
f 874 876 872
f 875 869 877
f 875 877 876
f 876 877 878
f 876 878 872
f 877 869 879
f 877 879 878
f 878 879 880
f 878 880 872
f 879 869 881
f 879 881 880
f 880 881 882
f 880 882 872
f 881 869 883
f 881 883 882
f 882 883 884
f 882 884 872
f 883 869 885
f 883 885 884
f 884 885 886
f 884 886 872
f 885 869 887
f 885 887 886
f 886 887 888
f 886 888 872
f 887 869 889
f 887 889 888
f 888 889 890
f 888 890 872
f 889 869 891
f 889 891 890
f 890 891 892
f 890 892 872
f 891 869 893
f 891 893 892
f 892 893 894
f 892 894 872
f 893 869 870
f 893 870 894
f 894 870 871
f 894 871 872
f 896 895 899
f 896 899 897
f 897 899 900
f 897 900 898
f 899 895 901
f 899 901 900
f 900 901 902
f 900 902 898
f 901 895 903
f 901 903 902
f 902 903 904
f 902 904 898
f 903 895 905
f 903 905 904
f 904 905 906
f 904 906 898
f 905 895 907
f 905 907 906
f 906 907 908
f 906 908 898
f 907 895 909
f 907 909 908
f 908 909 910
f 908 910 898
f 909 895 911
f 909 911 910
f 910 911 912
f 910 912 898
f 911 895 913
f 911 913 912
f 912 913 914
f 912 914 898
f 913 895 915
f 913 915 914
f 914 915 916
f 914 916 898
f 915 895 917
f 915 917 916
f 916 917 918
f 916 918 898
f 917 895 919
f 917 919 918
f 918 919 920
f 918 920 898
f 919 895 896
f 919 896 920
f 920 896 897
f 920 897 898
f 922 921 925
f 922 925 923
f 923 925 926
f 923 926 924
f 925 921 927
f 925 927 926
f 926 927 928
f 926 928 924
f 927 921 929
f 927 929 928
f 928 929 930
f 928 930 924
f 929 921 931
f 929 931 930
f 930 931 932
f 930 932 924
f 931 921 933
f 931 933 932
f 932 933 934
f 932 934 924
f 933 921 935
f 933 935 934
f 934 935 936
f 934 936 924
f 935 921 937
f 935 937 936
f 936 937 938
f 936 938 924
f 937 921 939
f 937 939 938
f 938 939 940
f 938 940 924
f 939 921 941
f 939 941 940
f 940 941 942
f 940 942 924
f 941 921 943
f 941 943 942
f 942 943 944
f 942 944 924
f 943 921 945
f 943 945 944
f 944 945 946
f 944 946 924
f 945 921 922
f 945 922 946
f 946 922 923
f 946 923 924
f 948 947 951
f 948 951 949
f 949 951 952
f 949 952 950
f 951 947 953
f 951 953 952
f 952 953 954
f 952 954 950
f 953 947 955
f 953 955 954
f 954 955 956
f 954 956 950
f 955 947 957
f 955 957 956
f 956 957 958
f 956 958 950
f 957 947 959
f 957 959 958
f 958 959 960
f 958 960 950
f 959 947 961
f 959 961 960
f 960 961 962
f 960 962 950
f 961 947 963
f 961 963 962
f 962 963 964
f 962 964 950
f 963 947 965
f 963 965 964
f 964 965 966
f 964 966 950
f 965 947 967
f 965 967 966
f 966 967 968
f 966 968 950
f 967 947 969
f 967 969 968
f 968 969 970
f 968 970 950
f 969 947 971
f 969 971 970
f 970 971 972
f 970 972 950
f 971 947 948
f 971 948 972
f 972 948 949
f 972 949 950
f 974 973 977
f 974 977 975
f 975 977 978
f 975 978 976
f 977 973 979
f 977 979 978
f 978 979 980
f 978 980 976
f 979 973 981
f 979 981 980
f 980 981 982
f 980 982 976
f 981 973 983
f 981 983 982
f 982 983 984
f 982 984 976
f 983 973 985
f 983 985 984
f 984 985 986
f 984 986 976
f 985 973 987
f 985 987 986
f 986 987 988
f 986 988 976
f 987 973 989
f 987 989 988
f 988 989 990
f 988 990 976
f 989 973 991
f 989 991 990
f 990 991 992
f 990 992 976
f 991 973 993
f 991 993 992
f 992 993 994
f 992 994 976
f 993 973 995
f 993 995 994
f 994 995 996
f 994 996 976
f 995 973 997
f 995 997 996
f 996 997 998
f 996 998 976
f 997 973 974
f 997 974 998
f 998 974 975
f 998 975 976
f 1000 999 1003
f 1000 1003 1001
f 1001 1003 1004
f 1001 1004 1002
f 1003 999 1005
f 1003 1005 1004
f 1004 1005 1006
f 1004 1006 1002
f 1005 999 1007
f 1005 1007 1006
f 1006 1007 1008
f 1006 1008 1002
f 1007 999 1009
f 1007 1009 1008
f 1008 1009 1010
f 1008 1010 1002
f 1009 999 1011
f 1009 1011 1010
f 1010 1011 1012
f 1010 1012 1002
f 1011 999 1013
f 1011 1013 1012
f 1012 1013 1014
f 1012 1014 1002
f 1013 999 1015
f 1013 1015 1014
f 1014 1015 1016
f 1014 1016 1002
f 1015 999 1017
f 1015 1017 1016
f 1016 1017 1018
f 1016 1018 1002
f 1017 999 1019
f 1017 1019 1018
f 1018 1019 1020
f 1018 1020 1002
f 1019 999 1021
f 1019 1021 1020
f 1020 1021 1022
f 1020 1022 1002
f 1021 999 1023
f 1021 1023 1022
f 1022 1023 1024
f 1022 1024 1002
f 1023 999 1000
f 1023 1000 1024
f 1024 1000 1001
f 1024 1001 1002
f 1026 1025 1029
f 1026 1029 1027
f 1027 1029 1030
f 1027 1030 1028
f 1029 1025 1031
f 1029 1031 1030
f 1030 1031 1032
f 1030 1032 1028
f 1031 1025 1033
f 1031 1033 1032
f 1032 1033 1034
f 1032 1034 1028
f 1033 1025 1035
f 1033 1035 1034
f 1034 1035 1036
f 1034 1036 1028
f 1035 1025 1037
f 1035 1037 1036
f 1036 1037 1038
f 1036 1038 1028
f 1037 1025 1039
f 1037 1039 1038
f 1038 1039 1040
f 1038 1040 1028
f 1039 1025 1041
f 1039 1041 1040
f 1040 1041 1042
f 1040 1042 1028
f 1041 1025 1043
f 1041 1043 1042
f 1042 1043 1044
f 1042 1044 1028
f 1043 1025 1045
f 1043 1045 1044
f 1044 1045 1046
f 1044 1046 1028
f 1045 1025 1047
f 1045 1047 1046
f 1046 1047 1048
f 1046 1048 1028
f 1047 1025 1049
f 1047 1049 1048
f 1048 1049 1050
f 1048 1050 1028
f 1049 1025 1026
f 1049 1026 1050
f 1050 1026 1027
f 1050 1027 1028

