# https://github.com/mikedh/trimesh
v 0.00000000 0.00000000 0.00000000
v 0.70000000 0.00000000 0.00000000
v 0.70000000 0.00000000 0.22000000
v 0.00000000 0.00000000 0.22000000
v 0.68244954 0.15576465 0.00000000
v 0.68244954 0.15576465 0.22000000
v 0.63067821 0.30371862 0.00000000
v 0.63067821 0.30371862 0.22000000
v 0.54728204 0.43644286 0.00000000
v 0.54728204 0.43644286 0.22000000
v 0.43644286 0.54728204 0.00000000
v 0.43644286 0.54728204 0.22000000
v 0.30371862 0.63067821 0.00000000
v 0.30371862 0.63067821 0.22000000
v 0.15576465 0.68244954 0.00000000
v 0.15576465 0.68244954 0.22000000
v 0.00000000 0.70000000 0.00000000
v 0.00000000 0.70000000 0.22000000
v -0.15576465 0.68244954 0.00000000
v -0.15576465 0.68244954 0.22000000
v -0.30371862 0.63067821 0.00000000
v -0.30371862 0.63067821 0.22000000
v -0.43644286 0.54728204 0.00000000
v -0.43644286 0.54728204 0.22000000
v -0.54728204 0.43644286 0.00000000
v -0.54728204 0.43644286 0.22000000
v -0.63067821 0.30371862 0.00000000
v -0.63067821 0.30371862 0.22000000
v -0.68244954 0.15576465 0.00000000
v -0.68244954 0.15576465 0.22000000
v -0.70000000 0.00000000 0.00000000
v -0.70000000 0.00000000 0.22000000
v -0.68244954 -0.15576465 0.00000000
v -0.68244954 -0.15576465 0.22000000
v -0.63067821 -0.30371862 0.00000000
v -0.63067821 -0.30371862 0.22000000
v -0.54728204 -0.43644286 0.00000000
v -0.54728204 -0.43644286 0.22000000
v -0.43644286 -0.54728204 0.00000000
v -0.43644286 -0.54728204 0.22000000
v -0.30371862 -0.63067821 0.00000000
v -0.30371862 -0.63067821 0.22000000
v -0.15576465 -0.68244954 0.00000000
v -0.15576465 -0.68244954 0.22000000
v -0.00000000 -0.70000000 0.00000000
v -0.00000000 -0.70000000 0.22000000
v 0.15576465 -0.68244954 0.00000000
v 0.15576465 -0.68244954 0.22000000
v 0.30371862 -0.63067821 0.00000000
v 0.30371862 -0.63067821 0.22000000
v 0.43644286 -0.54728204 0.00000000
v 0.43644286 -0.54728204 0.22000000
v 0.54728204 -0.43644286 0.00000000
v 0.54728204 -0.43644286 0.22000000
v 0.63067821 -0.30371862 0.00000000
v 0.63067821 -0.30371862 0.22000000
v 0.68244954 -0.15576465 0.00000000
v 0.68244954 -0.15576465 0.22000000
v -0.30492405 0.54233842 1.15000000
v 0.30492405 0.54233842 1.15000000
v -0.30492405 -0.34233842 1.15000000
v 0.30492405 -0.34233842 1.15000000
v 0.00000000 -0.17338018 1.72844255
v 0.00000000 0.37338018 1.72844255
v 0.00000000 -0.17338018 0.57155745
v 0.00000000 0.37338018 0.57155745
v 0.49337747 0.10000000 0.79250284
v 0.49337747 0.10000000 1.50749716
v -0.49337747 0.10000000 0.79250284
v -0.49337747 0.10000000 1.50749716
v 0.00000000 0.62000000 1.15000000
v 0.00000000 -0.42000000 1.15000000
v -0.17922986 -0.32068884 1.49000000
v 0.17922986 -0.32068884 1.49000000
v -0.17922986 0.52068884 1.49000000
v 0.17922986 0.52068884 1.49000000
v 0.00000000 0.10000000 1.83000000
v -0.17922986 -0.32068884 0.81000000
v 0.17922986 -0.32068884 0.81000000
v -0.17922986 0.52068884 0.81000000
v 0.17922986 0.52068884 0.81000000
v 0.00000000 0.10000000 0.47000000
v 0.46922986 0.36000000 0.93986844
v 0.46922986 -0.16000000 0.93986844
v 0.29000000 -0.06068884 0.59986844
v 0.29000000 0.26068884 0.59986844
v 0.46922986 0.36000000 1.36013156
v 0.46922986 -0.16000000 1.36013156
v 0.29000000 -0.06068884 1.70013156
v 0.29000000 0.26068884 1.70013156
v 0.58000000 0.10000000 1.15000000
v -0.46922986 0.36000000 0.93986844
v -0.46922986 -0.16000000 0.93986844
v -0.29000000 -0.06068884 0.59986844
v -0.29000000 0.26068884 0.59986844
v -0.46922986 0.36000000 1.36013156
v -0.46922986 -0.16000000 1.36013156
v -0.29000000 -0.06068884 1.70013156
v -0.29000000 0.26068884 1.70013156
v -0.58000000 0.10000000 1.15000000
v -0.15849459 0.60020795 1.15000000
v 0.15849459 0.60020795 1.15000000
v -0.15849459 -0.40020795 1.15000000
v 0.15849459 -0.40020795 1.15000000
v -0.25165537 -0.34858761 1.32672650
v -0.09316078 -0.26076585 1.62739158
v -0.09422671 -0.39454939 1.32874858
v 0.25165537 -0.34858761 1.32672650
v 0.09316078 -0.26076585 1.62739158
v 0.09422671 -0.39454939 1.32874858
v 0.00000000 -0.34233842 1.50749716
v -0.25165537 0.54858761 1.32672650
v -0.09316078 0.46076585 1.62739158
v -0.09422671 0.59454939 1.32874858
v 0.25165537 0.54858761 1.32672650
v 0.09316078 0.46076585 1.62739158
v 0.09422671 0.59454939 1.32874858
v 0.00000000 0.54233842 1.50749716
v 0.00000000 -0.04209860 1.80411808
v 0.00000000 0.24209860 1.80411808
v -0.25165537 -0.34858761 0.97327350
v -0.09316078 -0.26076585 0.67260842
v -0.09422671 -0.39454939 0.97125142
v 0.25165537 -0.34858761 0.97327350
v 0.09316078 -0.26076585 0.67260842
v 0.09422671 -0.39454939 0.97125142
v 0.00000000 -0.34233842 0.79250284
v -0.25165537 0.54858761 0.97327350
v -0.09316078 0.46076585 0.67260842
v -0.09422671 0.59454939 0.97125142
v 0.25165537 0.54858761 0.97327350
v 0.09316078 0.46076585 0.67260842
v 0.09422671 0.59454939 0.97125142
v 0.00000000 0.54233842 0.79250284
v 0.00000000 -0.04209860 0.49588192
v 0.00000000 0.24209860 0.49588192
v 0.40239268 0.46506415 1.04077702
v 0.50034772 0.23514379 0.85495578
v 0.34091545 0.45785930 0.86077873
v 0.40239268 -0.26506415 1.04077702
v 0.50034772 -0.03514379 0.85495578
v 0.34091545 -0.25785930 0.86077873
v 0.15073731 -0.12562205 0.56338543
v 0.40718694 0.01647654 0.67822928
v 0.24668873 -0.20564833 0.68203015
v 0.15246202 0.01552088 0.50328157
v 0.39915076 -0.12116921 0.75030603
v 0.15073731 0.32562205 0.56338543
v 0.40718694 0.18352346 0.67822928
v 0.24668873 0.40564833 0.68203015
v 0.15246202 0.18447912 0.50328157
v 0.39915076 0.32116921 0.75030603
v 0.30492405 0.10000000 0.57155745
v 0.40239268 0.46506415 1.25922298
v 0.50034772 0.23514379 1.44504422
v 0.34091545 0.45785930 1.43922127
v 0.49337747 0.37338018 1.15000000
v 0.40239268 -0.26506415 1.25922298
v 0.50034772 -0.03514379 1.44504422
v 0.34091545 -0.25785930 1.43922127
v 0.49337747 -0.17338018 1.15000000
v 0.15073731 -0.12562205 1.73661457
v 0.40718694 0.01647654 1.62177072
v 0.24668873 -0.20564833 1.61796985
v 0.15246202 0.01552088 1.79671843
v 0.39915076 -0.12116921 1.54969397
v 0.15073731 0.32562205 1.73661457
v 0.40718694 0.18352346 1.62177072
v 0.24668873 0.40564833 1.61796985
v 0.15246202 0.18447912 1.79671843
v 0.39915076 0.32116921 1.54969397
v 0.30492405 0.10000000 1.72844255
v 0.55792425 0.10000000 0.96417876
v 0.55792425 0.10000000 1.33582124
v 0.55161278 0.23669009 1.03952730
v 0.55161278 -0.03669009 1.03952730
v 0.55161278 0.23669009 1.26047270
v 0.55161278 -0.03669009 1.26047270
v -0.40239268 0.46506415 1.04077702
v -0.50034772 0.23514379 0.85495578
v -0.34091545 0.45785930 0.86077873
v -0.40239268 -0.26506415 1.04077702
v -0.50034772 -0.03514379 0.85495578
v -0.34091545 -0.25785930 0.86077873
v -0.15073731 -0.12562205 0.56338543
v -0.40718694 0.01647654 0.67822928
v -0.24668873 -0.20564833 0.68203015
v -0.15246202 0.01552088 0.50328157
v -0.39915076 -0.12116921 0.75030603
v -0.15073731 0.32562205 0.56338543
v -0.40718694 0.18352346 0.67822928
v -0.24668873 0.40564833 0.68203015
v -0.15246202 0.18447912 0.50328157
v -0.39915076 0.32116921 0.75030603
v -0.30492405 0.10000000 0.57155745
v -0.40239268 0.46506415 1.25922298
v -0.50034772 0.23514379 1.44504422
v -0.34091545 0.45785930 1.43922127
v -0.49337747 0.37338018 1.15000000
v -0.40239268 -0.26506415 1.25922298
v -0.50034772 -0.03514379 1.44504422
v -0.34091545 -0.25785930 1.43922127
v -0.49337747 -0.17338018 1.15000000
v -0.15073731 -0.12562205 1.73661457
v -0.40718694 0.01647654 1.62177072
v -0.24668873 -0.20564833 1.61796985
v -0.15246202 0.01552088 1.79671843
v -0.39915076 -0.12116921 1.54969397
v -0.15073731 0.32562205 1.73661457
v -0.40718694 0.18352346 1.62177072
v -0.24668873 0.40564833 1.61796985
v -0.15246202 0.18447912 1.79671843
v -0.39915076 0.32116921 1.54969397
v -0.30492405 0.10000000 1.72844255
v -0.55792425 0.10000000 0.96417876
v -0.55792425 0.10000000 1.33582124
v -0.55161278 0.23669009 1.03952730
v -0.55161278 -0.03669009 1.03952730
v -0.55161278 0.23669009 1.26047270
v -0.55161278 -0.03669009 1.26047270
v -0.23132169 0.49026032 1.90000000
v 0.23132169 0.49026032 1.90000000
v -0.23132169 -0.19026032 1.90000000
v 0.23132169 -0.19026032 1.90000000
v 0.00000000 -0.06029244 2.30831239
v 0.00000000 0.36029244 2.30831239
v 0.00000000 -0.06029244 1.49168761
v 0.00000000 0.36029244 1.49168761
v 0.37428636 0.15000000 1.64764907
v 0.37428636 0.15000000 2.15235093
v -0.37428636 0.15000000 1.64764907
v -0.37428636 0.15000000 2.15235093
v 0.00000000 0.55000000 1.90000000
v 0.00000000 -0.25000000 1.90000000
v -0.13596748 -0.17360680 2.14000000
v 0.13596748 -0.17360680 2.14000000
v -0.13596748 0.47360680 2.14000000
v 0.13596748 0.47360680 2.14000000
v 0.00000000 0.15000000 2.38000000
v -0.13596748 -0.17360680 1.66000000
v 0.13596748 -0.17360680 1.66000000
v -0.13596748 0.47360680 1.66000000
v 0.13596748 0.47360680 1.66000000
v 0.00000000 0.15000000 1.42000000
v 0.35596748 0.35000000 1.75167184
v 0.35596748 -0.05000000 1.75167184
v 0.22000000 0.02639320 1.51167184
v 0.22000000 0.27360680 1.51167184
v 0.35596748 0.35000000 2.04832816
v 0.35596748 -0.05000000 2.04832816
v 0.22000000 0.02639320 2.28832816
v 0.22000000 0.27360680 2.28832816
v 0.44000000 0.15000000 1.90000000
v -0.35596748 0.35000000 1.75167184
v -0.35596748 -0.05000000 1.75167184
v -0.22000000 0.02639320 1.51167184
v -0.22000000 0.27360680 1.51167184
v -0.35596748 0.35000000 2.04832816
v -0.35596748 -0.05000000 2.04832816
v -0.22000000 0.02639320 2.28832816
v -0.22000000 0.27360680 2.28832816
v -0.44000000 0.15000000 1.90000000
v -0.12023727 0.53477534 1.90000000
v 0.12023727 0.53477534 1.90000000
v -0.12023727 -0.23477534 1.90000000
v 0.12023727 -0.23477534 1.90000000
v -0.19091097 -0.19506739 2.02474812
v -0.07067370 -0.12751219 2.23698229
v -0.07148233 -0.23042261 2.02617547
v 0.19091097 -0.19506739 2.02474812
v 0.07067370 -0.12751219 2.23698229
v 0.07148233 -0.23042261 2.02617547
v 0.00000000 -0.19026032 2.15235093
v -0.19091097 0.49506739 2.02474812
v -0.07067370 0.42751219 2.23698229
v -0.07148233 0.53042261 2.02617547
v 0.19091097 0.49506739 2.02474812
v 0.07067370 0.42751219 2.23698229
v 0.07148233 0.53042261 2.02617547
v 0.00000000 0.49026032 2.15235093
v 0.00000000 0.04069339 2.36173041
v 0.00000000 0.25930661 2.36173041
v -0.19091097 -0.19506739 1.77525188
v -0.07067370 -0.12751219 1.56301771
v -0.07148233 -0.23042261 1.77382453
v 0.19091097 -0.19506739 1.77525188
v 0.07067370 -0.12751219 1.56301771
v 0.07148233 -0.23042261 1.77382453
v 0.00000000 -0.19026032 1.64764907
v -0.19091097 0.49506739 1.77525188
v -0.07067370 0.42751219 1.56301771
v -0.07148233 0.53042261 1.77382453
v 0.19091097 0.49506739 1.77525188
v 0.07067370 0.42751219 1.56301771
v 0.07148233 0.53042261 1.77382453
v 0.00000000 0.49026032 1.64764907
v 0.00000000 0.04069339 1.43826959
v 0.00000000 0.25930661 1.43826959
v 0.30526341 0.43081858 1.82290142
v 0.37957413 0.25395677 1.69173349
v 0.25862551 0.42527638 1.69584381
v 0.30526341 -0.13081858 1.82290142
v 0.37957413 0.04604323 1.69173349
v 0.25862551 -0.12527638 1.69584381
v 0.11435244 -0.02355543 1.48591913
v 0.30890044 0.08575119 1.56698537
v 0.18714318 -0.08511410 1.56966834
v 0.11566084 0.08501606 1.44349287
v 0.30280402 -0.02013016 1.61786308
v 0.11435244 0.32355543 1.48591913
v 0.30890044 0.21424881 1.56698537
v 0.18714318 0.38511410 1.56966834
v 0.11566084 0.21498394 1.44349287
v 0.30280402 0.32013016 1.61786308
v 0.23132169 0.15000000 1.49168761
v 0.30526341 0.43081858 1.97709858
v 0.37957413 0.25395677 2.10826651
v 0.25862551 0.42527638 2.10415619
v 0.37428636 0.36029244 1.90000000
v 0.30526341 -0.13081858 1.97709858
v 0.37957413 0.04604323 2.10826651
v 0.25862551 -0.12527638 2.10415619
v 0.37428636 -0.06029244 1.90000000
v 0.11435244 -0.02355543 2.31408087
v 0.30890044 0.08575119 2.23301463
v 0.18714318 -0.08511410 2.23033166
v 0.11566084 0.08501606 2.35650713
v 0.30280402 -0.02013016 2.18213692
v 0.11435244 0.32355543 2.31408087
v 0.30890044 0.21424881 2.23301463
v 0.18714318 0.38511410 2.23033166
v 0.11566084 0.21498394 2.35650713
v 0.30280402 0.32013016 2.18213692
v 0.23132169 0.15000000 2.30831239
v 0.42325288 0.15000000 1.76883207
v 0.42325288 0.15000000 2.03116793
v 0.41846487 0.25514622 1.82201927
v 0.41846487 0.04485378 1.82201927
v 0.41846487 0.25514622 1.97798073
v 0.41846487 0.04485378 1.97798073
v -0.30526341 0.43081858 1.82290142
v -0.37957413 0.25395677 1.69173349
v -0.25862551 0.42527638 1.69584381
v -0.30526341 -0.13081858 1.82290142
v -0.37957413 0.04604323 1.69173349
v -0.25862551 -0.12527638 1.69584381
v -0.11435244 -0.02355543 1.48591913
v -0.30890044 0.08575119 1.56698537
v -0.18714318 -0.08511410 1.56966834
v -0.11566084 0.08501606 1.44349287
v -0.30280402 -0.02013016 1.61786308
v -0.11435244 0.32355543 1.48591913
v -0.30890044 0.21424881 1.56698537
v -0.18714318 0.38511410 1.56966834
v -0.11566084 0.21498394 1.44349287
v -0.30280402 0.32013016 1.61786308
v -0.23132169 0.15000000 1.49168761
v -0.30526341 0.43081858 1.97709858
v -0.37957413 0.25395677 2.10826651
v -0.25862551 0.42527638 2.10415619
v -0.37428636 0.36029244 1.90000000
v -0.30526341 -0.13081858 1.97709858
v -0.37957413 0.04604323 2.10826651
v -0.25862551 -0.12527638 2.10415619
v -0.37428636 -0.06029244 1.90000000
v -0.11435244 -0.02355543 2.31408087
v -0.30890044 0.08575119 2.23301463
v -0.18714318 -0.08511410 2.23033166
v -0.11566084 0.08501606 2.35650713
v -0.30280402 -0.02013016 2.18213692
v -0.11435244 0.32355543 2.31408087
v -0.30890044 0.21424881 2.23301463
v -0.18714318 0.38511410 2.23033166
v -0.11566084 0.21498394 2.35650713
v -0.30280402 0.32013016 2.18213692
v -0.23132169 0.15000000 2.30831239
v -0.42325288 0.15000000 1.76883207
v -0.42325288 0.15000000 2.03116793
v -0.41846487 0.25514622 1.82201927
v -0.41846487 0.04485378 1.82201927
v -0.41846487 0.25514622 1.97798073
v -0.41846487 0.04485378 1.97798073
v 0.16000000 0.15000000 1.78000000
v 0.11244256 0.15000000 1.74341735
v 0.31244256 0.15000000 1.48341735
v 0.36000000 0.15000000 1.52000000
v 0.11881405 0.18000000 1.74831850
v 0.31881405 0.18000000 1.48831850
v 0.13622128 0.20196152 1.76170868
v 0.33622128 0.20196152 1.50170868
v 0.16000000 0.21000000 1.78000000
v 0.36000000 0.21000000 1.52000000
v 0.18377872 0.20196152 1.79829132
v 0.38377872 0.20196152 1.53829132
v 0.20118595 0.18000000 1.81168150
v 0.40118595 0.18000000 1.55168150
v 0.20755744 0.15000000 1.81658265
v 0.40755744 0.15000000 1.55658265
v 0.20118595 0.12000000 1.81168150
v 0.40118595 0.12000000 1.55168150
v 0.18377872 0.09803848 1.79829132
v 0.38377872 0.09803848 1.53829132
v 0.16000000 0.09000000 1.78000000
v 0.36000000 0.09000000 1.52000000
v 0.13622128 0.09803848 1.76170868
v 0.33622128 0.09803848 1.50170868
v 0.11881405 0.12000000 1.74831850
v 0.31881405 0.12000000 1.48831850
v 0.00000000 0.31000000 1.78000000
v 0.06000000 0.31000000 1.78000000
v 0.06000000 0.51000000 1.52000000
v 0.00000000 0.51000000 1.52000000
v 0.05196152 0.28622128 1.76170868
v 0.05196152 0.48622128 1.50170868
v 0.03000000 0.26881405 1.74831850
v 0.03000000 0.46881405 1.48831850
v 0.00000000 0.26244256 1.74341735
v 0.00000000 0.46244256 1.48341735
v -0.03000000 0.26881405 1.74831850
v -0.03000000 0.46881405 1.48831850
v -0.05196152 0.28622128 1.76170868
v -0.05196152 0.48622128 1.50170868
v -0.06000000 0.31000000 1.78000000
v -0.06000000 0.51000000 1.52000000
v -0.05196152 0.33377872 1.79829132
v -0.05196152 0.53377872 1.53829132
v -0.03000000 0.35118595 1.81168150
v -0.03000000 0.55118595 1.55168150
v 0.00000000 0.35755744 1.81658265
v 0.00000000 0.55755744 1.55658265
v 0.03000000 0.35118595 1.81168150
v 0.03000000 0.55118595 1.55168150
v 0.05196152 0.33377872 1.79829132
v 0.05196152 0.53377872 1.53829132
v -0.16000000 0.15000000 1.78000000
v -0.20755744 0.15000000 1.81658265
v -0.40755744 0.15000000 1.55658265
v -0.36000000 0.15000000 1.52000000
v -0.20118595 0.18000000 1.81168150
v -0.40118595 0.18000000 1.55168150
v -0.18377872 0.20196152 1.79829132
v -0.38377872 0.20196152 1.53829132
v -0.16000000 0.21000000 1.78000000
v -0.36000000 0.21000000 1.52000000
v -0.13622128 0.20196152 1.76170868
v -0.33622128 0.20196152 1.50170868
v -0.11881405 0.18000000 1.74831850
v -0.31881405 0.18000000 1.48831850
v -0.11244256 0.15000000 1.74341735
v -0.31244256 0.15000000 1.48341735
v -0.11881405 0.12000000 1.74831850
v -0.31881405 0.12000000 1.48831850
v -0.13622128 0.09803848 1.76170868
v -0.33622128 0.09803848 1.50170868
v -0.16000000 0.09000000 1.78000000
v -0.36000000 0.09000000 1.52000000
v -0.18377872 0.09803848 1.79829132
v -0.38377872 0.09803848 1.53829132
v -0.20118595 0.12000000 1.81168150
v -0.40118595 0.12000000 1.55168150
v -0.00000000 -0.01000000 1.78000000
v 0.06000000 -0.01000000 1.78000000
v 0.06000000 -0.21000000 1.52000000
v -0.00000000 -0.21000000 1.52000000
v 0.05196152 -0.03377872 1.79829132
v 0.05196152 -0.23377872 1.53829132
v 0.03000000 -0.05118595 1.81168150
v 0.03000000 -0.25118595 1.55168150
v -0.00000000 -0.05755744 1.81658265
v -0.00000000 -0.25755744 1.55658265
v -0.03000000 -0.05118595 1.81168150
v -0.03000000 -0.25118595 1.55168150
v -0.05196152 -0.03377872 1.79829132
v -0.05196152 -0.23377872 1.53829132
v -0.06000000 -0.01000000 1.78000000
v -0.06000000 -0.21000000 1.52000000
v -0.05196152 0.01377872 1.76170868
v -0.05196152 -0.18622128 1.50170868
v -0.03000000 0.03118595 1.74831850
v -0.03000000 -0.16881405 1.48831850
v -0.00000000 0.03755744 1.74341735
v -0.00000000 -0.16244256 1.48341735
v 0.03000000 0.03118595 1.74831850
v 0.03000000 -0.16881405 1.48831850
v 0.05196152 0.01377872 1.76170868
v 0.05196152 -0.18622128 1.50170868
f 2 1 5
f 2 5 3
f 3 5 6
f 3 6 4
f 5 1 7
f 5 7 6
f 6 7 8
f 6 8 4
f 7 1 9
f 7 9 8
f 8 9 10
f 8 10 4
f 9 1 11
f 9 11 10
f 10 11 12
f 10 12 4
f 11 1 13
f 11 13 12
f 12 13 14
f 12 14 4
f 13 1 15
f 13 15 14
f 14 15 16
f 14 16 4
f 15 1 17
f 15 17 16
f 16 17 18
f 16 18 4
f 17 1 19
f 17 19 18
f 18 19 20
f 18 20 4
f 19 1 21
f 19 21 20
f 20 21 22
f 20 22 4
f 21 1 23
f 21 23 22
f 22 23 24
f 22 24 4
f 23 1 25
f 23 25 24
f 24 25 26
f 24 26 4
f 25 1 27
f 25 27 26
f 26 27 28
f 26 28 4
f 27 1 29
f 27 29 28
f 28 29 30
f 28 30 4
f 29 1 31
f 29 31 30
f 30 31 32
f 30 32 4
f 31 1 33
f 31 33 32
f 32 33 34
f 32 34 4
f 33 1 35
f 33 35 34
f 34 35 36
f 34 36 4
f 35 1 37
f 35 37 36
f 36 37 38
f 36 38 4
f 37 1 39
f 37 39 38
f 38 39 40
f 38 40 4
f 39 1 41
f 39 41 40
f 40 41 42
f 40 42 4
f 41 1 43
f 41 43 42
f 42 43 44
f 42 44 4
f 43 1 45
f 43 45 44
f 44 45 46
f 44 46 4
f 45 1 47
f 45 47 46
f 46 47 48
f 46 48 4
f 47 1 49
f 47 49 48
f 48 49 50
f 48 50 4
f 49 1 51
f 49 51 50
f 50 51 52
f 50 52 4
f 51 1 53
f 51 53 52
f 52 53 54
f 52 54 4
f 53 1 55
f 53 55 54
f 54 55 56
f 54 56 4
f 55 1 57
f 55 57 56
f 56 57 58
f 56 58 4
f 57 1 2
f 57 2 58
f 58 2 3
f 58 3 4
f 59 196 112
f 196 96 198
f 112 198 75
f 196 198 112
f 96 197 213
f 197 70 210
f 213 210 99
f 197 210 213
f 75 211 113
f 211 99 209
f 113 209 64
f 211 209 113
f 96 213 198
f 213 99 211
f 198 211 75
f 213 211 198
f 59 112 101
f 112 75 114
f 101 114 71
f 112 114 101
f 75 113 118
f 113 64 116
f 118 116 76
f 113 116 118
f 71 117 102
f 117 76 115
f 102 115 60
f 117 115 102
f 75 118 114
f 118 76 117
f 114 117 71
f 118 117 114
f 59 101 128
f 101 71 130
f 128 130 80
f 101 130 128
f 71 102 133
f 102 60 131
f 133 131 81
f 102 131 133
f 80 134 129
f 134 81 132
f 129 132 66
f 134 132 129
f 71 133 130
f 133 81 134
f 130 134 80
f 133 134 130
f 59 128 179
f 128 80 181
f 179 181 92
f 128 181 179
f 80 129 192
f 129 66 190
f 192 190 95
f 129 190 192
f 92 194 180
f 194 95 191
f 180 191 69
f 194 191 180
f 80 192 181
f 192 95 194
f 181 194 92
f 192 194 181
f 59 179 196
f 179 92 199
f 196 199 96
f 179 199 196
f 92 180 217
f 180 69 215
f 217 215 100
f 180 215 217
f 96 219 197
f 219 100 216
f 197 216 70
f 219 216 197
f 92 217 199
f 217 100 219
f 199 219 96
f 217 219 199
f 60 115 154
f 115 76 156
f 154 156 87
f 115 156 154
f 76 116 169
f 116 64 167
f 169 167 90
f 116 167 169
f 87 171 155
f 171 90 168
f 155 168 68
f 171 168 155
f 76 169 156
f 169 90 171
f 156 171 87
f 169 171 156
f 64 209 120
f 209 99 212
f 120 212 77
f 209 212 120
f 99 210 214
f 210 70 205
f 214 205 98
f 210 205 214
f 77 207 119
f 207 98 204
f 119 204 63
f 207 204 119
f 99 214 212
f 214 98 207
f 212 207 77
f 214 207 212
f 70 216 201
f 216 100 220
f 201 220 97
f 216 220 201
f 100 215 218
f 215 69 183
f 218 183 93
f 215 183 218
f 97 203 200
f 203 93 182
f 200 182 61
f 203 182 200
f 100 218 220
f 218 93 203
f 220 203 97
f 218 203 220
f 69 191 186
f 191 95 195
f 186 195 94
f 191 195 186
f 95 190 193
f 190 66 136
f 193 136 82
f 190 136 193
f 94 188 185
f 188 82 135
f 185 135 65
f 188 135 185
f 95 193 195
f 193 82 188
f 195 188 94
f 193 188 195
f 66 132 148
f 132 81 150
f 148 150 86
f 132 150 148
f 81 131 139
f 131 60 137
f 139 137 83
f 131 137 139
f 86 152 149
f 152 83 138
f 149 138 67
f 152 138 149
f 81 139 150
f 139 83 152
f 150 152 86
f 139 152 150
f 62 158 108
f 158 88 160
f 108 160 74
f 158 160 108
f 88 159 166
f 159 68 163
f 166 163 89
f 159 163 166
f 74 164 109
f 164 89 162
f 109 162 63
f 164 162 109
f 88 166 160
f 166 89 164
f 160 164 74
f 166 164 160
f 62 108 104
f 108 74 110
f 104 110 72
f 108 110 104
f 74 109 111
f 109 63 106
f 111 106 73
f 109 106 111
f 72 107 103
f 107 73 105
f 103 105 61
f 107 105 103
f 74 111 110
f 111 73 107
f 110 107 72
f 111 107 110
f 62 104 124
f 104 72 126
f 124 126 79
f 104 126 124
f 72 103 123
f 103 61 121
f 123 121 78
f 103 121 123
f 79 127 125
f 127 78 122
f 125 122 65
f 127 122 125
f 72 123 126
f 123 78 127
f 126 127 79
f 123 127 126
f 62 124 140
f 124 79 142
f 140 142 84
f 124 142 140
f 79 125 145
f 125 65 143
f 145 143 85
f 125 143 145
f 84 147 141
f 147 85 144
f 141 144 67
f 147 144 141
f 79 145 142
f 145 85 147
f 142 147 84
f 145 147 142
f 62 140 158
f 140 84 161
f 158 161 88
f 140 161 158
f 84 141 176
f 141 67 173
f 176 173 91
f 141 173 176
f 88 178 159
f 178 91 174
f 159 174 68
f 178 174 159
f 84 176 161
f 176 91 178
f 161 178 88
f 176 178 161
f 63 162 119
f 162 89 165
f 119 165 77
f 162 165 119
f 89 163 172
f 163 68 168
f 172 168 90
f 163 168 172
f 77 170 120
f 170 90 167
f 120 167 64
f 170 167 120
f 89 172 165
f 172 90 170
f 165 170 77
f 172 170 165
f 61 105 200
f 105 73 202
f 200 202 97
f 105 202 200
f 73 106 206
f 106 63 204
f 206 204 98
f 106 204 206
f 97 208 201
f 208 98 205
f 201 205 70
f 208 205 201
f 73 206 202
f 206 98 208
f 202 208 97
f 206 208 202
f 65 122 185
f 122 78 187
f 185 187 94
f 122 187 185
f 78 121 184
f 121 61 182
f 184 182 93
f 121 182 184
f 94 189 186
f 189 93 183
f 186 183 69
f 189 183 186
f 78 184 187
f 184 93 189
f 187 189 94
f 184 189 187
f 67 144 149
f 144 85 153
f 149 153 86
f 144 153 149
f 85 143 146
f 143 65 135
f 146 135 82
f 143 135 146
f 86 151 148
f 151 82 136
f 148 136 66
f 151 136 148
f 85 146 153
f 146 82 151
f 153 151 86
f 146 151 153
f 68 174 155
f 174 91 177
f 155 177 87
f 174 177 155
f 91 173 175
f 173 67 138
f 175 138 83
f 173 138 175
f 87 157 154
f 157 83 137
f 154 137 60
f 157 137 154
f 91 175 177
f 175 83 157
f 177 157 87
f 175 157 177
f 221 358 274
f 358 258 360
f 274 360 237
f 358 360 274
f 258 359 375
f 359 232 372
f 375 372 261
f 359 372 375
f 237 373 275
f 373 261 371
f 275 371 226
f 373 371 275
f 258 375 360
f 375 261 373
f 360 373 237
f 375 373 360
f 221 274 263
f 274 237 276
f 263 276 233
f 274 276 263
f 237 275 280
f 275 226 278
f 280 278 238
f 275 278 280
f 233 279 264
f 279 238 277
f 264 277 222
f 279 277 264
f 237 280 276
f 280 238 279
f 276 279 233
f 280 279 276
f 221 263 290
f 263 233 292
f 290 292 242
f 263 292 290
f 233 264 295
f 264 222 293
f 295 293 243
f 264 293 295
f 242 296 291
f 296 243 294
f 291 294 228
f 296 294 291
f 233 295 292
f 295 243 296
f 292 296 242
f 295 296 292
f 221 290 341
f 290 242 343
f 341 343 254
f 290 343 341
f 242 291 354
f 291 228 352
f 354 352 257
f 291 352 354
f 254 356 342
f 356 257 353
f 342 353 231
f 356 353 342
f 242 354 343
f 354 257 356
f 343 356 254
f 354 356 343
f 221 341 358
f 341 254 361
f 358 361 258
f 341 361 358
f 254 342 379
f 342 231 377
f 379 377 262
f 342 377 379
f 258 381 359
f 381 262 378
f 359 378 232
f 381 378 359
f 254 379 361
f 379 262 381
f 361 381 258
f 379 381 361
f 222 277 316
f 277 238 318
f 316 318 249
f 277 318 316
f 238 278 331
f 278 226 329
f 331 329 252
f 278 329 331
f 249 333 317
f 333 252 330
f 317 330 230
f 333 330 317
f 238 331 318
f 331 252 333
f 318 333 249
f 331 333 318
f 226 371 282
f 371 261 374
f 282 374 239
f 371 374 282
f 261 372 376
f 372 232 367
f 376 367 260
f 372 367 376
f 239 369 281
f 369 260 366
f 281 366 225
f 369 366 281
f 261 376 374
f 376 260 369
f 374 369 239
f 376 369 374
f 232 378 363
f 378 262 382
f 363 382 259
f 378 382 363
f 262 377 380
f 377 231 345
f 380 345 255
f 377 345 380
f 259 365 362
f 365 255 344
f 362 344 223
f 365 344 362
f 262 380 382
f 380 255 365
f 382 365 259
f 380 365 382
f 231 353 348
f 353 257 357
f 348 357 256
f 353 357 348
f 257 352 355
f 352 228 298
f 355 298 244
f 352 298 355
f 256 350 347
f 350 244 297
f 347 297 227
f 350 297 347
f 257 355 357
f 355 244 350
f 357 350 256
f 355 350 357
f 228 294 310
f 294 243 312
f 310 312 248
f 294 312 310
f 243 293 301
f 293 222 299
f 301 299 245
f 293 299 301
f 248 314 311
f 314 245 300
f 311 300 229
f 314 300 311
f 243 301 312
f 301 245 314
f 312 314 248
f 301 314 312
f 224 320 270
f 320 250 322
f 270 322 236
f 320 322 270
f 250 321 328
f 321 230 325
f 328 325 251
f 321 325 328
f 236 326 271
f 326 251 324
f 271 324 225
f 326 324 271
f 250 328 322
f 328 251 326
f 322 326 236
f 328 326 322
f 224 270 266
f 270 236 272
f 266 272 234
f 270 272 266
f 236 271 273
f 271 225 268
f 273 268 235
f 271 268 273
f 234 269 265
f 269 235 267
f 265 267 223
f 269 267 265
f 236 273 272
f 273 235 269
f 272 269 234
f 273 269 272
f 224 266 286
f 266 234 288
f 286 288 241
f 266 288 286
f 234 265 285
f 265 223 283
f 285 283 240
f 265 283 285
f 241 289 287
f 289 240 284
f 287 284 227
f 289 284 287
f 234 285 288
f 285 240 289
f 288 289 241
f 285 289 288
f 224 286 302
f 286 241 304
f 302 304 246
f 286 304 302
f 241 287 307
f 287 227 305
f 307 305 247
f 287 305 307
f 246 309 303
f 309 247 306
f 303 306 229
f 309 306 303
f 241 307 304
f 307 247 309
f 304 309 246
f 307 309 304
f 224 302 320
f 302 246 323
f 320 323 250
f 302 323 320
f 246 303 338
f 303 229 335
f 338 335 253
f 303 335 338
f 250 340 321
f 340 253 336
f 321 336 230
f 340 336 321
f 246 338 323
f 338 253 340
f 323 340 250
f 338 340 323
f 225 324 281
f 324 251 327
f 281 327 239
f 324 327 281
f 251 325 334
f 325 230 330
f 334 330 252
f 325 330 334
f 239 332 282
f 332 252 329
f 282 329 226
f 332 329 282
f 251 334 327
f 334 252 332
f 327 332 239
f 334 332 327
f 223 267 362
f 267 235 364
f 362 364 259
f 267 364 362
f 235 268 368
f 268 225 366
f 368 366 260
f 268 366 368
f 259 370 363
f 370 260 367
f 363 367 232
f 370 367 363
f 235 368 364
f 368 260 370
f 364 370 259
f 368 370 364
f 227 284 347
f 284 240 349
f 347 349 256
f 284 349 347
f 240 283 346
f 283 223 344
f 346 344 255
f 283 344 346
f 256 351 348
f 351 255 345
f 348 345 231
f 351 345 348
f 240 346 349
f 346 255 351
f 349 351 256
f 346 351 349
f 229 306 311
f 306 247 315
f 311 315 248
f 306 315 311
f 247 305 308
f 305 227 297
f 308 297 244
f 305 297 308
f 248 313 310
f 313 244 298
f 310 298 228
f 313 298 310
f 247 308 315
f 308 244 313
f 315 313 248
f 308 313 315
f 230 336 317
f 336 253 339
f 317 339 249
f 336 339 317
f 253 335 337
f 335 229 300
f 337 300 245
f 335 300 337
f 249 319 316
f 319 245 299
f 316 299 222
f 319 299 316
f 253 337 339
f 337 245 319
f 339 319 249
f 337 319 339
f 384 383 387
f 384 387 385
f 385 387 388
f 385 388 386
f 387 383 389
f 387 389 388
f 388 389 390
f 388 390 386
f 389 383 391
f 389 391 390
f 390 391 392
f 390 392 386
f 391 383 393
f 391 393 392
f 392 393 394
f 392 394 386
f 393 383 395
f 393 395 394
f 394 395 396
f 394 396 386
f 395 383 397
f 395 397 396
f 396 397 398
f 396 398 386
f 397 383 399
f 397 399 398
f 398 399 400
f 398 400 386
f 399 383 401
f 399 401 400
f 400 401 402
f 400 402 386
f 401 383 403
f 401 403 402
f 402 403 404
f 402 404 386
f 403 383 405
f 403 405 404
f 404 405 406
f 404 406 386
f 405 383 407
f 405 407 406
f 406 407 408
f 406 408 386
f 407 383 384
f 407 384 408
f 408 384 385
f 408 385 386
f 410 409 413
f 410 413 411
f 411 413 414
f 411 414 412
f 413 409 415
f 413 415 414
f 414 415 416
f 414 416 412
f 415 409 417
f 415 417 416
f 416 417 418
f 416 418 412
f 417 409 419
f 417 419 418
f 418 419 420
f 418 420 412
f 419 409 421
f 419 421 420
f 420 421 422
f 420 422 412
f 421 409 423
f 421 423 422
f 422 423 424
f 422 424 412
f 423 409 425
f 423 425 424
f 424 425 426
f 424 426 412
f 425 409 427
f 425 427 426
f 426 427 428
f 426 428 412
f 427 409 429
f 427 429 428
f 428 429 430
f 428 430 412
f 429 409 431
f 429 431 430
f 430 431 432
f 430 432 412
f 431 409 433
f 431 433 432
f 432 433 434
f 432 434 412
f 433 409 410
f 433 410 434
f 434 410 411
f 434 411 412
f 436 435 439
f 436 439 437
f 437 439 440
f 437 440 438
f 439 435 441
f 439 441 440
f 440 441 442
f 440 442 438
f 441 435 443
f 441 443 442
f 442 443 444
f 442 444 438
f 443 435 445
f 443 445 444
f 444 445 446
f 444 446 438
f 445 435 447
f 445 447 446
f 446 447 448
f 446 448 438
f 447 435 449
f 447 449 448
f 448 449 450
f 448 450 438
f 449 435 451
f 449 451 450
f 450 451 452
f 450 452 438
f 451 435 453
f 451 453 452
f 452 453 454
f 452 454 438
f 453 435 455
f 453 455 454
f 454 455 456
f 454 456 438
f 455 435 457
f 455 457 456
f 456 457 458
f 456 458 438
f 457 435 459
f 457 459 458
f 458 459 460
f 458 460 438
f 459 435 436
f 459 436 460
f 460 436 437
f 460 437 438
f 462 461 465
f 462 465 463
f 463 465 466
f 463 466 464
f 465 461 467
f 465 467 466
f 466 467 468
f 466 468 464
f 467 461 469
f 467 469 468
f 468 469 470
f 468 470 464
f 469 461 471
f 469 471 470
f 470 471 472
f 470 472 464
f 471 461 473
f 471 473 472
f 472 473 474
f 472 474 464
f 473 461 475
f 473 475 474
f 474 475 476
f 474 476 464
f 475 461 477
f 475 477 476
f 476 477 478
f 476 478 464
f 477 461 479
f 477 479 478
f 478 479 480
f 478 480 464
f 479 461 481
f 479 481 480
f 480 481 482
f 480 482 464
f 481 461 483
f 481 483 482
f 482 483 484
f 482 484 464
f 483 461 485
f 483 485 484
f 484 485 486
f 484 486 464
f 485 461 462
f 485 462 486
f 486 462 463
f 486 463 464

